<?xml version="1.0" encoding="UTF-8" standalone="no"?>
<svg width="390px" height="352px" viewBox="0 0 390 352" version="1.1" xmlns="http://www.w3.org/2000/svg" xmlns:xlink="http://www.w3.org/1999/xlink">
    <!-- Generator: Sketch 42 (36781) - http://www.bohemiancoding.com/sketch -->
    <title>SVG_Logo</title>
    <desc>Created with Sketch.</desc>
    <defs>
        <radialGradient cx="23.6981446%" cy="24.9917317%" fx="23.6981446%" fy="24.9917317%" r="72.5046565%" id="radialGradient-1">
            <stop stop-color="#FFEA72" offset="0%"></stop>
            <stop stop-color="#FFD700" offset="100%"></stop>
        </radialGradient>
        <radialGradient cx="5.45822878%" cy="9.56700422%" fx="5.45822878%" fy="9.56700422%" r="93.6417273%" id="radialGradient-2">
            <stop stop-color="#FFEA72" offset="0%"></stop>
            <stop stop-color="#FFD700" offset="100%"></stop>
        </radialGradient>
        <radialGradient cx="63.3345781%" cy="8.08720673%" fx="63.3345781%" fy="8.08720673%" r="66.0098182%" id="radialGradient-3">
            <stop stop-color="#FFEA72" offset="0%"></stop>
            <stop stop-color="#FFD700" offset="100%"></stop>
        </radialGradient>
        <radialGradient cx="5.35263157%" cy="9.56472138%" fx="5.35263157%" fy="9.56472138%" r="162.287947%" id="radialGradient-4">
            <stop stop-color="#FFEA72" offset="0%"></stop>
            <stop stop-color="#FFD700" offset="100%"></stop>
        </radialGradient>
        <radialGradient cx="37.8137089%" cy="3.92381351%" fx="37.8137089%" fy="3.92381351%" r="102.725838%" id="radialGradient-5">
            <stop stop-color="#FFEA72" offset="0%"></stop>
            <stop stop-color="#FFD700" offset="100%"></stop>
        </radialGradient>
        <radialGradient cx="36.9726652%" cy="-49.1316497%" fx="36.9726652%" fy="-49.1316497%" r="110.516813%" id="radialGradient-6">
            <stop stop-color="#FFE545" offset="0%"></stop>
            <stop stop-color="#E6C200" offset="100%"></stop>
        </radialGradient>
        <radialGradient cx="37.8539983%" cy="4.01340198%" fx="37.8539983%" fy="4.01340198%" r="102.897866%" id="radialGradient-7">
            <stop stop-color="#FFEA72" offset="0%"></stop>
            <stop stop-color="#FFD700" offset="100%"></stop>
        </radialGradient>
        <radialGradient cx="37.3170077%" cy="7.95474904%" fx="37.3170077%" fy="7.95474904%" r="154.046032%" id="radialGradient-8">
            <stop stop-color="#FFEA72" offset="0%"></stop>
            <stop stop-color="#FFD700" offset="100%"></stop>
        </radialGradient>
    </defs>
    <g id="Page-1" stroke="none" stroke-width="1" fill="none" fill-rule="evenodd">
        <g id="SVG_Logo">
            <g id="Group">
                <path d="M182.1,50.5 L182.1,46 L182.1,16.5 L182.1,0.5 L195.4,9.5 C204.3,15.5 221.6,-1.6 236.9,5.1 L242,7.3 L242,12.9 L242,42.4 L242,55.5 L230,50.2 C227.5,49.1 217.6,53.3 215,54.2 C214.4,54.4 213.8,54.6 213.2,54.8 C229.4,57.3 246.1,63.2 259.1,73.4 L262.7,76.2 L261.7,92 C271.2,93.4 280.6,95 289.8,96.9 L296.1,98.2 L301,161.4 C304,162.5 307.1,163.6 310.1,164.8 L320,168.7 L319.1,179.2 C317.8,194.2 315.9,209.1 313.4,224 C313.3,224.7 313.2,225.4 313,226.1 C314.8,227.5 316.2,229.2 317.3,231.3 C336,231.4 354.6,231.4 373.3,231.5 L389.4,231.6 L369.8,260.2 C368,262.8 366.3,265.3 364.5,267.9 L364.5,286.9 L364.5,311.8 L364.5,336.9 L340.5,329.3 C335.5,327.7 330.5,326.4 325.4,325.2 L318.8,323.6 L310.4,322 C305.2,321 300.1,320.1 294.9,319.3 L280.8,317.3 C277.6,317.5 274.5,317.4 271.3,317.1 C268.4,316.8 265.6,316.3 262.8,315.6 C254.4,322.2 245.7,327.9 237.5,332.6 C224.8,339.9 211.2,346.1 197.3,350.9 L194.6,351.8 L191.9,350.9 C178,346.2 164.4,340 151.7,332.7 C143.5,328 134.8,322.3 126.4,315.7 C122.8,316.1 119.1,316.4 115.5,316.8 L111,317 C105.6,317.7 100.3,318.5 95,319.2 L92.1,319.6 C86.5,320.5 80.9,321.6 75.3,322.7 L71.2,323.5 L64.2,325.2 C59.1,326.4 54.1,327.8 49.1,329.4 L25.1,337 L25.1,311.8 L25.1,286.6 L25.1,267.2 C23.4,264.8 21.8,262.4 20.1,260 L0.7,231.4 L16.8,231.4 L25.1,231.4 L25.1,196.9 L72.7,196.9 C72,191 71.4,185.1 70.9,179.1 L70,168.6 L79.9,164.7 C82.6,163.6 85.3,162.6 88,161.7 C89.5,142.7 90.9,123.6 92.4,104.6 L92.9,98.2 L99.2,96.9 C108.8,94.9 118.5,93.2 128.3,91.8 L127.3,76.2 L130.7,73.4 C145.3,61.4 163.8,56 182.3,54 L182.3,50.5 L182.1,50.5 Z" id="Shape" fill="url(#radialGradient-1)"></path>
                <g transform="translate(16.000000, 11.000000)">
                    <path d="M272.1,94.2 L282.4,228 C285.8,272.2 229.3,314.4 178.5,331.6 C127.6,314.4 71.1,272.2 74.5,228 C77.9,183.4 81.4,138.8 84.8,94.2 C145,81.6 211.9,81.6 272.1,94.2 Z" id="Shape" fill="#291300"></path>
                    <polygon id="Shape" fill="#291300" points="174.7 77.5 174.7 13.7 183.2 13 183.2 41.5 183.2 45.1 183.2 77.5"></polygon>
                    <path d="M178.9,254.1 L83.9,254.1 C76.3,224.5 71.5,196.6 69,167 C77.2,163.8 85.5,161.1 93.7,159 L95.4,177.1 C98.7,176.1 102.5,175.3 105.4,174.8 L104.3,156.1 C118.8,151.9 131,150 147.8,149.8 L147.8,177 L179,177 L179,254.1 L178.9,254.1 Z" id="Shape" fill="url(#radialGradient-2)"></path>
                    <polygon id="Shape" fill="#FFFFFF" points="102.6 175.3 102.6 175.3 111.4 179.5 114.1 182.9 90.4 184.4"></polygon>
                    <polygon id="Shape" fill="#FFFFFF" points="104.3 156.1 129.4 156.6 129.1 159.9 114.8 163.8 116.2 187 111.4 179.5"></polygon>
                    <path d="M72.9,167.7 C78.2,167.2 83.5,166.7 88.7,166.1 C88.8,167.2 88.9,168.3 89,169.4 C85.9,170.9 82.9,172.3 79.8,173.8 C81.7,195.1 85.2,214.3 89.1,232.9 C87.1,232.8 85.2,232.6 83.2,232.5 C79.8,211 76.3,189.4 72.9,167.7 Z" id="Shape" fill="#FFFFFF"></path>
                    <path d="M178.9,259.8 L79.5,259.8 L78.4,255.5 C74.5,240.4 71.4,225.9 68.9,211.5 C66.4,196.9 64.6,182.4 63.3,167.4 L62.9,163.2 L66.9,161.6 C71.1,159.9 75.3,158.4 79.6,157.1 C83.9,155.7 88.1,154.5 92.3,153.4 L98.7,151.8 L98.7,151.8 L102.7,150.7 C110.3,148.5 117.2,146.9 124.3,145.9 C131.4,144.9 138.9,144.3 147.7,144.2 L153.4,144.1 L153.4,171.3 L184.6,171.3 L184.6,259.8 L178.9,259.8 L178.9,259.8 Z M88.3,248.4 L173.2,248.4 L173.2,182.7 L142,182.7 L142,155.6 C136.3,155.8 131,156.3 125.9,157 C120.6,157.8 115.5,158.8 110.2,160.2 L111.4,179.4 C103.8,180.7 97.9,182.2 90.4,184.3 L88.7,166.1 C86.8,166.6 85,167.2 83.1,167.8 C80.4,168.7 77.7,169.6 75,170.6 C77.5,197 82,222.8 88.3,248.4 Z" id="Shape" fill="#291300"></path>
                    <path d="M178.9,254.1 L273.9,254.1 C281.5,224.5 286.3,196.6 288.8,167 C280.6,163.8 272.3,161.1 264.1,159 L262.4,177.1 C259.1,176.1 255.3,175.3 252.4,174.8 L253.5,156.1 C239,151.9 226.8,150 210,149.8 L210,177 L178.8,177 L178.8,254.1 L178.9,254.1 Z" id="Shape" fill="url(#radialGradient-3)"></path>
                    <polygon id="Shape" fill="#FFFFFF" points="230.4 159.8 248.8 163.6 248.5 158.2 227.7 155.8"></polygon>
                    <polygon id="Shape" fill="#FFFFFF" points="246.5 179.5 267 187 270.4 191.6 273.1 170.4 282.5 173.3 282.8 170.7 260.1 160.1"></polygon>
                    <path d="M184.6,248.4 L269.5,248.4 C272.8,235.3 275.5,222.5 277.7,209.6 C279.9,196.8 281.6,183.9 282.8,170.8 C280.1,169.8 277.4,168.9 274.7,168 C272.9,167.4 271,166.8 269.1,166.3 L267.4,184.5 L260.8,182.6 C259.2,182.1 257.7,181.8 256.3,181.4 C254.7,181 253,180.7 251.4,180.4 L246.4,179.5 L247.6,160.3 C242.3,158.9 237.2,157.8 231.9,157.1 C226.8,156.4 221.5,155.9 215.8,155.7 L215.8,182.8 L184.6,182.8 L184.6,248.4 L184.6,248.4 Z M273.9,259.8 L173.2,259.8 L173.2,171.3 L204.4,171.3 L204.4,144.1 L210.1,144.2 C218.8,144.3 226.3,144.8 233.5,145.9 C240.6,146.9 247.5,148.5 255.1,150.7 L259.1,151.8 L259.1,151.8 L265.5,153.4 C269.7,154.5 273.9,155.7 278.2,157.1 C282.4,158.5 286.6,160 290.9,161.6 L294.9,163.2 L294.5,167.4 C293.2,182.3 291.4,196.9 288.9,211.5 C286.4,225.9 283.3,240.4 279.4,255.5 L278.3,259.8 L273.9,259.8 Z" id="Shape" fill="#291300"></path>
                    <path d="M178.9,254.1 L127.1,254.1 C128.5,213.1 133.2,170.3 138.4,131 C135.2,129.3 129.3,126 129.1,121.9 C128,105.1 127,88.3 125.9,71.6 C131.3,67.2 141.2,62.8 147.1,61.3 L148.2,81.4 C154.3,80.5 159.2,79.5 165.2,79.1 L165.2,57.3 C169.8,56.4 174.4,56 179,56 C183.6,56 188.2,56.4 192.8,57.3 L192.8,79.1 C198.9,79.5 203.8,80.4 209.8,81.4 L210.9,61.3 C216.8,62.8 226.7,67.2 232.1,71.6 C231,88.4 229.9,105.2 228.9,121.9 C228.6,126 222.8,129.3 219.6,131 C224.8,170.3 229.5,213.1 230.9,254.1 L178.9,254.1 L178.9,254.1 Z" id="Shape" fill="url(#radialGradient-4)"></path>
                    <path d="M129.4,125.5 L126.1,71.4 L144.6,68.6 L148,70.8 L146,91.6 L145.9,113.2 C151,113.8 159.4,116.9 163,119.8 L129.4,125.5 Z" id="Shape" fill="#FFFFFF"></path>
                    <path d="M143.5,98.5 C151.9,92.4 164.2,87 172.9,88.4 C172.5,86 172.1,83.6 171.7,81.2 C164.2,81.5 156.8,81.8 149.3,82.1 C138.9,86.4 144.6,95.4 143.5,98.5 Z" id="Shape" fill="#FFFFFF"></path>
                    <polygon id="Shape" fill="#FFFFFF" points="169.7 84.4 174.2 93.5 174.7 65.7 187.9 64.6 188.3 61.8 166.9 58.9"></polygon>
                    <path d="M128.3,229.4 L139.8,129.6 C143,128.3 153.3,123.7 156.5,122.4 C150.3,153.9 146,197.3 143.3,230 L128.3,229.4 Z" id="Shape" fill="#FFFFFF"></path>
                    <path d="M178.9,259.8 L121.2,259.8 L121.4,253.9 C122.1,233.2 123.6,212.2 125.6,191.4 C127.5,171.9 129.8,152.6 132.2,134.1 C131.1,133.4 130,132.7 129,131.8 C126,129.4 123.6,126.2 123.3,122.3 L119.9,69.1 C130.5,60.4 139.4,57.4 152.2,54.1 L153.4,74.8 C155.4,74.5 157.4,74.2 159.4,73.9 L159.4,52.6 C185,47.8 217.2,52.9 237.8,69.1 L234.4,122.3 C234.1,126.2 231.7,129.4 228.7,131.8 C227.7,132.7 226.5,133.4 225.5,134.1 C232,163.2 244.4,217.5 245.8,259.8 L178.9,259.8 L178.9,259.8 Z M143.8,133 C141.3,152.2 138.9,172.3 136.9,192.5 C135.1,211.2 133.7,230 132.9,248.5 L224.7,248.5 C223.9,230 222.5,211.2 220.7,192.5 C218.7,171.9 216.3,151.4 213.7,131.8 L213.2,127.8 L216.8,126 C218.2,125.3 220.1,124.3 221.6,123 C222.4,122.3 223.1,121.8 223.1,121.6 L226.1,74.4 C223,72.4 219.5,70.6 216,69.2 L214.9,88 C205.3,86.5 196.6,85.1 186.9,84.5 L186.9,62.2 C181.6,61.6 176.1,61.6 170.8,62.2 L169.7,84.4 C160,85 152.1,87.6 146,91.5 L144.6,68.5 C141.2,69.9 134.8,72.2 131.7,74.3 L134.7,121.5 C134.7,128.7 138.4,131 143.8,133 Z" id="Shape" fill="#291300"></path>
                    <path d="M357.2,228.9 L346.7,244.2 C344.5,247.5 342.2,250.7 339.9,254 L339.9,275.7 L339.9,300.6 L339.9,314.1 L327.1,310 C321.9,308.4 316.7,307 311.4,305.7 L304.5,304 L295.9,302.4 C290.6,301.4 285.3,300.4 280,299.7 L271.5,298.5 L271.5,296.3 C266.6,297.8 261.3,298 256.1,297.4 C247.4,296.5 239,293.6 232.7,287.1 C232.5,286.9 232.3,286.7 232.1,286.4 C225.6,291.9 217.3,293.6 209,293.2 C202.2,292.9 195.5,292.8 188.7,292.7 L179,292.6 L179,292.2 C175.5,293 171.9,293.4 168.2,293.5 C161.7,293.6 155.1,292.7 149.3,289.9 L149.3,293.3 L139.9,293.7 C135.4,293.9 130.9,294.2 126.5,294.5 L120.9,294.9 L120.8,294.8 L114.6,295.4 C109.2,295.9 103.8,296.5 98.4,297 L94,297.5 L93.9,297.5 C88.5,298.2 83.1,299 77.7,299.7 L74.7,300.1 L74.6,300.1 C68.9,301.1 63.2,302.1 57.6,303.2 L53.3,304 L46.1,305.8 C40.8,307.1 35.6,308.5 30.5,310.1 L17.7,314.2 L17.7,300.7 L17.7,275.5 L17.7,253.4 C15.5,250.3 13.4,247.2 11.3,244.1 L0.9,228.8 C120,228.6 238.3,228.4 357.2,228.9 Z" id="Shape" fill="#291300"></path>
                    <path d="M27.5,238.7 L35.6,238.7 L43.7,238.7 L43.7,246.8 L43.7,254.9 C45.3,252.1 46.9,249.4 48.4,246.7 C50,244 51.6,241.4 53.2,238.8 C59.3,238.8 65.5,238.8 71.6,238.7 C69.1,242.3 66.6,246 64.2,249.8 C61.7,253.6 59.3,257.5 56.8,261.5 C59.5,266.6 62.1,271.6 64.8,276.5 C67.5,281.3 70.2,286 72.9,290.7 C67.2,291.7 61.4,292.7 55.7,293.8 C54.2,290.9 52.7,287.9 51.2,284.9 C49.7,281.9 48.2,278.9 46.8,275.9 C45.7,277.7 44.7,279.6 43.7,281.4 L43.7,288.9 L43.7,296.4 C38.3,297.7 32.8,299.2 27.4,300.9 L27.4,275.7 L27.4,250.5 C24.7,246.7 22,242.9 19.3,238.9 C22,238.7 24.7,238.7 27.5,238.7 L27.5,238.7 Z M330,238.7 L338.6,238.7 C335.7,242.9 332.9,247 330,250.9 L330,275.8 L330,300.7 C324.5,299 319.1,297.6 313.7,296.2 L313.7,286.1 L313.7,276 C312.4,279.2 311.1,282.4 309.9,285.6 C307.1,285 304.3,284.6 301.6,284.1 C300.3,280.6 299,277.2 297.8,273.7 L297.8,283.2 L297.8,292.7 C292.3,291.7 286.9,290.7 281.5,289.9 L281.5,264.2 L281.5,238.5 L297,238.5 C298.5,242.2 299.9,246 301.4,249.9 C302.9,253.8 304.3,257.7 305.8,261.6 C307.2,257.9 308.7,254.1 310.1,250.3 C311.5,246.5 313,242.5 314.5,238.6 L322.3,238.6 C324.8,238.6 327.4,238.7 330,238.7 L330,238.7 Z M76.3,238.5 L92.6,238.5 L92.6,263.1 L92.6,287.7 C87.1,288.4 81.7,289.2 76.3,290 L76.3,264.2 L76.3,238.5 L76.3,238.5 Z M97.4,238.5 L111.1,238.5 C113.1,241.6 115.1,244.6 117.1,247.7 C119.1,250.7 121.2,253.7 123.2,256.7 L123.2,247.6 L123.2,238.5 L139.5,238.5 L139.5,261.2 L139.5,283.9 C134.9,284.1 130.3,284.4 125.8,284.7 C123.8,281.8 121.8,278.9 119.8,276 C117.8,273.1 115.8,270.1 113.8,267.1 L113.8,276.3 L113.8,285.5 C108.4,286 102.9,286.6 97.5,287.1 L97.5,262.7 C97.4,254.7 97.4,246.6 97.4,238.5 L97.4,238.5 Z M168.1,283.7 C159.9,283.8 153.6,282 149.3,278.3 C147.1,276.4 145.5,274 144.4,271.2 C143.3,268.3 142.8,265 142.8,261.1 C142.8,257.3 143.3,253.9 144.5,251 C145.6,248.1 147.3,245.6 149.6,243.6 C154.1,239.6 160.6,237.7 169.2,237.7 C172,237.7 174.5,237.9 176.8,238.2 C179,238.5 181.1,239 183.2,239.7 L183.2,246.8 L183.2,253.9 C179.6,252.5 175.3,251.8 170.3,251.8 C166.9,251.8 164.2,252.5 162.3,253.9 C160.4,255.3 159.5,257.6 159.5,260.8 C159.5,264 160.2,266.3 161.6,267.7 C163,269 165.1,269.7 168,269.6 C169.4,269.6 170.8,269.4 172,269.1 L172,266.4 C169.6,266.4 167.2,266.4 164.8,266.5 L164.8,256.4 C171.7,256.4 178.6,256.3 185.5,256.4 L185.5,267.9 L185.5,279.4 C183.4,280.7 181,281.7 178.1,282.5 C175.1,283.2 171.8,283.7 168.1,283.7 L168.1,283.7 Z M188.8,238.4 L209.4,238.4 C216.9,238.4 222.5,240.3 226.3,244.2 C230,248.1 232,254 232,261.8 C232,265.7 231.5,269.1 230.5,271.9 C229.5,274.7 228.1,277 226.1,278.7 C222.2,282.2 216.7,283.8 209.4,283.5 C202.5,283.2 195.7,283.1 188.8,283 L188.8,260.7 L188.8,238.4 L188.8,238.4 Z M207.5,270.6 C210.1,270.7 212.1,270.1 213.4,268.8 C214.7,267.5 215.3,265.1 215.3,261.4 C215.3,258.9 215,256.9 214.4,255.6 C213.8,254.3 213,253.4 211.9,253 C210.8,252.6 209.3,252.3 207.4,252.3 L205,252.3 L205,261.4 L205,270.5 C205.9,270.5 206.7,270.6 207.5,270.6 L207.5,270.6 Z M257.2,287.7 C249.6,286.9 243.8,284.4 239.9,280.4 C237.9,278.4 236.4,275.8 235.5,272.7 C234.5,269.6 234,265.9 234,261.7 C234,257.5 234.5,253.8 235.5,250.8 C236.5,247.8 238,245.3 239.9,243.4 C243.8,239.6 249.6,237.7 257.2,237.7 C264.8,237.7 270.6,239.7 274.5,243.8 C276.5,245.9 277.9,248.6 278.9,252 C279.9,255.4 280.4,259.5 280.4,264.1 C280.4,268.8 279.9,272.8 278.9,276 C277.9,279.2 276.5,281.8 274.5,283.6 C270.6,287.2 264.8,288.5 257.2,287.7 L257.2,287.7 Z M257.2,272.2 C259.6,272.4 261.3,271.8 262.3,270.4 C263.3,269 263.8,266.6 263.8,263 C263.8,259.4 263.3,256.9 262.3,255.4 C261.3,253.9 259.6,253.1 257.2,253.1 C254.8,253 253.1,253.7 252.1,255.1 C251.1,256.5 250.6,258.9 250.6,262.3 C250.6,265.8 251.1,268.2 252.1,269.7 C253.1,271.2 254.8,272.1 257.2,272.2 Z" id="Shape" fill="url(#radialGradient-5)"></path>
                    <path d="M30.3,278.4 L30.3,297 C33.8,296 37.3,295 40.9,294.1 L40.9,288.8 L40.9,281.3 L40.9,280.6 L41.3,280 C42.3,278.1 43.4,276.3 44.4,274.4 L44.4,274.4 C39.5,275.6 34.8,277 30.3,278.4 L30.3,278.4 Z M48.8,273.2 L49.4,274.5 C50.8,277.5 52.3,280.5 53.8,283.5 C54.9,285.8 56.1,288.1 57.3,290.4 C61,289.7 64.7,289 68.5,288.3 C66.4,284.7 64.4,281.2 62.4,277.6 C61.1,275.3 59.9,273.1 58.7,270.8 C55.3,271.6 52,272.4 48.8,273.2 L48.8,273.2 Z M156.7,259.1 C153,259.2 149.3,259.4 145.7,259.6 L145.7,261.1 C145.7,264.2 146.1,267.3 147.1,270.2 C148,272.5 149.3,274.5 151.1,276.2 C155.6,280.1 162.2,281 168,280.9 C171.1,280.9 174.2,280.5 177.2,279.7 C179,279.2 180.9,278.5 182.6,277.7 L182.6,267.9 L182.6,259.2 L167.6,259.2 L167.6,263.6 L171.9,263.6 L174.8,263.6 L174.8,266.5 L174.8,269.2 L174.8,271.4 L172.7,272 C171.2,272.4 169.6,272.6 168,272.6 C165,272.6 161.8,272 159.6,269.9 C157.2,267.6 156.7,264.1 156.7,261 C156.6,260.2 156.6,259.7 156.7,259.1 L156.7,259.1 Z M136.6,260.1 C133,260.3 129.5,260.6 126,260.9 L126,265.8 L122.8,261.2 C119.7,261.5 116.6,261.8 113.6,262.1 L116,265.6 C118,268.6 120,271.5 122,274.5 C123.7,277 125.4,279.4 127.1,281.9 C130.3,281.7 133.4,281.5 136.6,281.3 L136.6,261.3 L136.6,260.1 L136.6,260.1 Z M110.8,262.4 C107.2,262.8 103.7,263.2 100.2,263.7 L100.2,284.1 C103.7,283.7 107.3,283.4 110.8,283 L110.8,276.4 L110.8,267.2 L110.8,262.4 L110.8,262.4 Z M89.8,265.1 C86.2,265.6 82.7,266.2 79.2,266.8 L79.2,286.7 C82.7,286.2 86.3,285.7 89.8,285.2 L89.8,265.1 L89.8,265.1 Z M327.1,278.5 C323.7,277.4 320.1,276.4 316.5,275.4 L316.5,276 L316.5,286.1 L316.5,294 C320.1,294.9 323.6,295.8 327.1,296.9 L327.1,278.5 L327.1,278.5 Z M311.4,274 C307.6,273 303.8,272.1 299.8,271.2 L300.4,272.8 C301.5,275.7 302.6,278.7 303.7,281.6 C305.2,281.8 306.7,282.1 308.1,282.4 C309.1,279.9 310.1,277.5 311,275 L311.4,274 L311.4,274 Z M294.9,270.1 C291.4,269.4 287.9,268.7 284.3,268 L284.3,287.5 C287.9,288 291.4,288.7 294.9,289.3 L294.9,283.2 L294.9,273.7 L294.9,270.1 L294.9,270.1 Z M277.5,266.8 C273.9,266.2 270.3,265.6 266.6,265 C266.5,267.5 266,270.2 264.6,272.1 C262.8,274.6 259.9,275.3 257,275.1 C254.1,274.9 251.4,273.8 249.8,271.4 C248.1,269 247.8,265.5 247.8,262.6 C244.2,262.2 240.5,261.8 236.9,261.5 L236.9,261.7 C236.9,265.1 237.2,268.6 238.2,271.9 C239,274.4 240.2,276.6 242,278.5 C246.1,282.7 252,284.4 257.6,285 C262.7,285.5 268.7,285.3 272.7,281.7 C274.5,280.1 275.6,277.7 276.3,275.4 C277,272.6 277.4,269.7 277.5,266.8 L277.5,266.8 Z M229.1,260.8 C225.5,260.5 221.9,260.3 218.2,260 L218.2,261.4 C218.2,264.5 217.8,268.5 215.4,270.9 C213.3,273 210.3,273.6 207.4,273.5 C206.6,273.5 205.8,273.4 205,273.4 L202.2,273.3 L202.2,270.5 L202.2,261.4 L202.2,259.2 C198.7,259.1 195.2,259 191.6,258.9 L191.6,260.7 L191.6,280.2 C197.6,280.3 203.5,280.4 209.5,280.7 C214.6,280.9 220.2,280.2 224.1,276.7 C225.8,275.2 226.9,273.3 227.7,271.1 C228.7,268.2 229,265 229,261.9 C229.1,261.5 229.1,261.1 229.1,260.8 Z" id="Shape" fill="url(#radialGradient-6)"></path>
                    <path d="M172,269.1 L173.1,272.5 C171.9,272.8 170.5,273 169.1,273 C166.2,273 164.1,272.4 162.7,271.1 C161.7,270.1 161.1,268.7 160.8,266.7 C162.3,269.1 165.4,269.6 168,269.6 C169.4,269.6 170.7,269.4 172,269.1 Z" id="Shape" fill="#FFFFFF"></path>
                    <path d="M257.2,272.2 C259.6,272.4 261.3,271.8 262.3,270.4 C263.3,269 263.8,266.6 263.8,263 C263.8,261.5 263.7,260.2 263.5,259 C264.4,260.5 264.9,263 264.9,266.4 C264.9,270 264.4,272.4 263.4,273.8 C262.4,275.2 260.7,275.8 258.3,275.6 C255.9,275.4 254.2,274.6 253.2,273.1 C252.6,272.2 252.2,271 251.9,269.5 L252,269.7 C253.1,271.2 254.8,272.1 257.2,272.2 Z" id="Shape" fill="#FFFFFF"></path>
                    <path d="M236.2,274.8 C235.9,274.1 235.7,273.4 235.4,272.7 C234.4,269.6 233.9,265.9 233.9,261.7 C233.9,257.5 234.4,253.8 235.4,250.8 C236.4,247.8 237.9,245.3 239.8,243.4 C243.7,239.6 249.5,237.7 257.1,237.7 C264.7,237.7 270.5,239.7 274.4,243.8 C276.4,245.9 277.8,248.6 278.8,252 C278.9,252.2 278.9,252.4 279,252.6 C278.1,250.5 277,248.7 275.6,247.2 C271.7,243.1 265.9,241.1 258.3,241.1 C250.7,241.1 244.9,243 241,246.8 C239,248.7 237.5,251.1 236.6,254.2 C235.6,257.2 235.1,260.9 235.1,265.1 C235.1,268.7 235.5,272 236.2,274.8 Z" id="Shape" fill="#FFFFFF"></path>
                    <path d="M207.5,270.6 C210.1,270.7 212.1,270.1 213.4,268.8 C214.7,267.5 215.3,265.1 215.3,261.4 C215.3,260.1 215.2,259 215.1,258.1 C215.3,258.4 215.4,258.7 215.6,259 C216.2,260.3 216.5,262.3 216.5,264.8 C216.5,268.5 215.9,271 214.6,272.2 C213.3,273.5 211.3,274 208.7,274 C207.9,274 207.1,273.9 206.3,273.9 L205.2,270.5 L207.5,270.6 Z" id="Shape" fill="#FFFFFF"></path>
                    <path d="M188.8,238.4 L209.4,238.4 C216.9,238.4 222.5,240.3 226.3,244.2 C228.5,246.5 230,249.4 231,253.1 C230.1,251 228.9,249.2 227.5,247.6 C223.8,243.7 218.1,241.8 210.6,241.8 L190,241.8 L190,264.1 L190,283 L188.9,283 L188.9,260.7 C188.8,253.3 188.8,245.8 188.8,238.4 Z" id="Shape" fill="#FFFFFF"></path>
                    <path d="M165.9,266.4 L164.8,266.4 L164.8,256.5 C165,256.4 165.2,256.3 165.4,256.2 C171.8,256.2 181,256.1 185.5,256.2 L185.5,259.6 L166,259.6 L166,266.4 L165.9,266.4 Z" id="Shape" fill="#FFFFFF"></path>
                    <path d="M144.8,272.2 C144.7,271.9 144.5,271.5 144.4,271.2 C143.3,268.3 142.8,265 142.8,261.1 C142.8,257.3 143.3,253.9 144.5,251 C145.6,248.1 147.3,245.6 149.6,243.6 C154.1,239.6 160.6,237.7 169.2,237.7 C172,237.7 174.5,237.9 176.8,238.2 C179,238.5 181.1,239 183.2,239.7 L183.2,242.7 C181.5,242.2 179.8,241.8 178,241.5 C175.8,241.2 173.2,241 170.4,241 C161.8,241 155.3,243 150.8,246.9 C148.5,248.9 146.8,251.3 145.7,254.3 C144.6,257.2 144,260.6 144,264.4 C144,267.3 144.3,269.9 144.8,272.2 Z" id="Shape" fill="#FFFFFF"></path>
                    <path d="M97.4,238.5 L111.1,238.5 C113.1,241.6 115.1,244.6 117.1,247.7 C119.1,250.7 121.2,253.7 123.2,256.7 L123.2,247.6 L123.2,238.5 L139.5,238.5 L139.5,241.9 L124.4,241.9 L124.4,251 L124.4,260.1 C122.4,257.1 120.3,254.1 118.3,251.1 C116.3,248.1 114.3,245 112.3,241.9 L98.6,241.9 L98.6,266.3 L98.6,287.2 L97.5,287.3 L97.5,262.9 C97.4,254.7 97.4,246.6 97.4,238.5 Z" id="Shape" fill="#FFFFFF"></path>
                    <path d="M76.3,238.5 L92.6,238.5 L92.6,241.9 L77.4,241.9 L77.4,267.7 L77.4,289.9 L76.3,290.1 L76.3,264.3 L76.3,238.5 Z" id="Shape" fill="#FFFFFF"></path>
                    <path d="M314.8,296.5 L313.7,296.2 L313.7,286.1 L313.7,276 L314.8,279.4 L314.8,289.5 L314.8,296.5 Z" id="Shape" fill="#FFFFFF"></path>
                    <path d="M330,238.7 L338.6,238.7 C337.8,239.8 337,241 336.3,242.1 L331.2,242.1 L323.4,242.1 L315.6,242.1 C314.1,246.1 312.6,250 311.2,253.8 C309.8,257.6 308.3,261.4 306.9,265.1 C305.4,261.2 304,257.3 302.5,253.4 C301,249.6 299.6,245.8 298.1,242 L282.6,242 L282.6,267.7 L282.6,290.2 L281.5,290 L281.5,271.7 C281.6,270.4 281.6,269 281.6,267.6 C281.6,266.2 281.5,264.8 281.5,263.5 L281.5,238.5 L297,238.5 C298.5,242.2 299.9,246 301.4,249.9 C302.9,253.8 304.3,257.7 305.8,261.6 C307.2,257.9 308.7,254.1 310.1,250.3 C311.5,246.5 313,242.5 314.5,238.6 L322.3,238.6 C324.8,238.6 327.4,238.7 330,238.7 Z" id="Shape" fill="#FFFFFF"></path>
                    <path d="M28.6,300.5 L27.5,300.9 L27.5,275.7 L27.5,250.5 L28.6,252.1 L28.6,279.2 L28.6,300.5 Z" id="Shape" fill="#FFFFFF"></path>
                    <polygon id="Shape" fill="#FFFFFF" points="43.7 254.7 48.5 246.5 53.2 238.6 71.6 238.5 69.3 241.9 54.4 242 49.6 249.9 43.7 258.7"></polygon>
                    <path d="M27.5,238.7 L35.6,238.7 L43.7,238.7 L43.7,242.1 L36.7,242.1 L28.6,242.1 L21.7,242.1 C20.9,241 20.1,239.8 19.4,238.7 L27.5,238.7 Z" id="Shape" fill="#FFFFFF"></path>
                    <path d="M181.2,182.8 C183.2,182.8 185.1,183.1 186.9,183.7 C188.7,184.3 190.3,185.1 191.8,186 C198.2,190.3 197.4,196.1 198.3,203.6 C199.3,211.1 200.5,220.3 201.6,228.7 L160.8,228.7 C162,220.4 163.2,211.1 164.1,203.6 C165.1,196.1 164.3,190.4 170.6,186 C172,185 173.7,184.2 175.4,183.7 C177.3,183.1 179.2,182.8 181.2,182.8 Z" id="Shape" fill="#FFFFFF"></path>
                    <path d="M178.9,182.7 C180.8,182.7 182.5,183 184.2,183.6 C185.8,184.1 187.4,184.9 188.7,185.9 C194.6,190.2 193.8,195.1 194.7,203.3 C195.7,211.4 197.1,222.8 198.4,232.5 L193.5,232.5 L188.6,232.5 L178.9,232.5 L169.2,232.5 L159.5,232.5 C160.8,222.8 162.2,211.5 163.2,203.3 C164.2,195.2 163.4,190.2 169.2,185.9 C170.5,184.9 172,184.1 173.7,183.6 C175.3,183.1 177.1,182.7 178.9,182.7 Z" id="Shape" fill="#291300"></path>
                    <path d="M179.8,149.6 C180.4,149.6 181,149.7 181.6,149.9 C182.2,150.1 182.7,150.4 183.1,150.8 C185.1,152.5 184.9,155.1 185.1,157.6 C185.5,161.4 186.5,165.8 186.9,169.6 L173,169.6 L173.2,167.6 L174.6,157.6 C175,155.1 174.5,152.4 176.5,150.7 C176.9,150.3 177.5,150 178,149.8 C178.6,149.8 179.2,149.6 179.8,149.6 Z" id="Shape" fill="#FFFFFF"></path>
                    <path d="M178.9,149.6 C179.4,149.6 180,149.7 180.4,149.9 C180.9,150.1 181.3,150.4 181.7,150.7 C183.4,152.3 183.2,154.6 183.5,157 C183.8,160.5 184.2,164.1 184.6,167.6 L183.2,167.6 L181.8,167.6 L179,167.6 L176.2,167.6 L173.4,167.6 C173.8,164.1 174.1,160.5 174.5,157 C174.7,154.6 174.6,152.2 176.3,150.7 C176.7,150.3 177.1,150.1 177.6,149.9 C177.9,149.8 178.4,149.6 178.9,149.6 Z" id="Shape" fill="#291300"></path>
                    <polygon id="Shape" fill="#291300" points="152.3 54.1 159.5 65.2 162 80.4 145.4 81"></polygon>
                    <polygon id="Shape" fill="#FFFFFF" points="208.8 80.8 210.6 65.3 203.8 69.6 202.7 79.7"></polygon>
                    <ellipse id="Oval" fill="#291300" cx="117.7" cy="222.9" rx="13.4" ry="11.8"></ellipse>
                    <path d="M238.7,210.3 C231.4,211.8 226.5,218.9 227.6,226.2 C228.7,233.5 235.5,238.2 242.8,236.8 C250.1,235.3 255,228.2 253.9,220.9 C252.8,213.6 246,208.8 238.7,210.3 Z" id="Shape" fill="#291300"></path>
                    <ellipse id="Oval" fill="#291300" cx="69.8" cy="227.7" rx="10.6" ry="9.4"></ellipse>
                    <circle id="Oval" fill="#291300" cx="102.6" cy="226" r="5"></circle>
                    <circle id="Oval" fill="#291300" transform="translate(252.889360, 223.402080) rotate(-9.997359) translate(-252.889360, -223.402080) " cx="252.88936" cy="223.40208" r="7.2998832"></circle>
                    <circle id="Oval" fill="#291300" transform="translate(287.089680, 227.512140) rotate(-9.997359) translate(-287.089680, -227.512140) " cx="287.08968" cy="227.51214" r="7.2998832"></circle>
                    <circle id="Oval" fill="#291300" transform="translate(259.692100, 227.414200) rotate(-9.997359) translate(-259.692100, -227.414200) " cx="259.6921" cy="227.4142" r="3.1999488"></circle>
                    <path d="M214.4,67 L215,88 L211.6,119.9 C209.1,119.4 204.3,119.3 202,119.4 C204.6,121.4 206.5,123.5 207.7,125.6 C212.7,165 218,195.5 221.2,231.7 L233,234.8 L220.8,140.9 L229.4,113.4 L229.6,69.8 L214.4,67 Z" id="Shape" fill="#291300"></path>
                    <path d="M138.3,142.5 C141.4,134.5 151.1,123.1 163,119.7 C151.2,119.5 139.2,121.5 133.4,125.3 L138.3,142.5 Z" id="Shape" fill="#291300"></path>
                    <rect id="Rectangle-path" fill="#291300" x="17.6" y="194.4" width="116.4" height="42"></rect>
                    <path d="M43.2,227.7 C38.5,227.7 35,226.7 32.5,224.6 C30.1,222.5 28.9,219.5 28.9,215.4 C28.9,211.3 30.1,208.3 32.5,206.2 C34.9,204.1 38.4,203.1 43.1,203.1 C44.6,203.1 45.9,203.2 47,203.4 C48.2,203.6 49.4,203.9 50.6,204.4 L50.6,212.2 C48.4,211.2 46,210.6 43.7,210.6 C41.8,210.6 40.4,211 39.5,211.7 C38.5,212.4 38.1,213.6 38.1,215.4 C38.1,217.1 38.6,218.3 39.6,219 C40.6,219.7 42,220.1 43.8,220.1 C46.2,220.1 48.5,219.6 50.7,218.5 L50.7,226.3 C49.5,226.7 48.3,227.1 47.1,227.3 C45.9,227.6 44.6,227.7 43.2,227.7 L43.2,227.7 Z M60.8,227.7 C59.1,227.7 57.5,227.6 55.9,227.3 C54.3,227 53,226.6 52,226.1 L52,219.4 C53.2,220 54.5,220.4 55.9,220.8 C57.3,221.2 58.6,221.4 59.8,221.4 C60.5,221.4 61.1,221.3 61.5,221.1 C61.9,220.9 62.1,220.6 62.1,220.3 C62.1,220 61.9,219.8 61.6,219.6 C61.3,219.4 60.6,219.2 59.7,218.8 C58.6,218.4 58,218.2 57.8,218.2 C56.2,217.6 55,217 54.1,216.3 C53.2,215.7 52.6,214.9 52.2,214 C51.8,213.1 51.6,212 51.6,210.6 C51.6,208.1 52.5,206.2 54.2,205 C55.9,203.8 58.6,203.2 62.1,203.2 C63.3,203.2 64.6,203.3 66.1,203.6 C67.6,203.8 68.9,204.1 69.9,204.4 L69.9,211.1 C67.6,210.1 65.4,209.7 63.6,209.7 C61.7,209.7 60.7,210 60.7,210.6 C60.7,210.8 60.9,211.1 61.2,211.2 C61.5,211.4 62.2,211.6 63.3,211.9 L64.3,212.2 C66.2,212.7 67.7,213.4 68.7,214.1 C69.7,214.9 70.4,215.7 70.7,216.7 C71.1,217.7 71.2,218.9 71.2,220.4 C71.2,222.7 70.3,224.6 68.5,225.9 C66.9,227 64.3,227.7 60.8,227.7 L60.8,227.7 Z M86.4,227.7 C81.9,227.7 78.4,226.7 76.1,224.6 C73.7,222.5 72.5,219.5 72.5,215.4 C72.5,211.4 73.7,208.3 76.2,206.2 C78.7,204.1 82.3,203.1 87,203.1 C88.6,203.1 89.9,203.2 91.2,203.4 C92.4,203.6 93.6,203.8 94.7,204.2 L94.7,211.8 C92.7,211 90.4,210.7 87.6,210.7 C85.7,210.7 84.3,211.1 83.2,211.8 C82.2,212.5 81.6,213.7 81.6,215.5 C81.6,217.2 82,218.5 82.7,219.2 C83.5,219.9 84.6,220.3 86.2,220.3 C87,220.3 87.7,220.2 88.4,220 L88.4,218.6 L84.4,218.6 L84.4,213 L96,213 L96,225.3 C94.9,226 93.5,226.6 91.9,227 C90.3,227.5 88.5,227.7 86.4,227.7 L86.4,227.7 Z M109.9,227.7 C105.7,227.7 102.5,226.7 100.4,224.8 C98.2,222.9 97.2,219.7 97.2,215.4 C97.2,211.1 98.3,207.9 100.4,206 C102.6,204.1 105.7,203.1 109.9,203.1 C114.1,203.1 117.3,204.1 119.4,206 C121.6,207.9 122.6,211.1 122.6,215.4 C122.6,219.7 121.5,222.9 119.4,224.8 C117.3,226.8 114.1,227.7 109.9,227.7 L109.9,227.7 Z M109.9,220.1 C111.2,220.1 112.1,219.7 112.7,219 C113.3,218.3 113.5,217.1 113.5,215.4 C113.5,213.7 113.2,212.5 112.7,211.7 C112.1,211 111.2,210.6 109.9,210.6 C108.6,210.6 107.7,211 107.1,211.7 C106.5,212.4 106.3,213.6 106.3,215.4 C106.3,217.1 106.6,218.3 107.1,219 C107.7,219.8 108.6,220.1 109.9,220.1 Z" id="Shape" fill="url(#radialGradient-7)"></path>
                    <path d="M174.7,5.4 C188.7,14.9 206.1,-3.3 217.5,1.7 L217.5,31.2 C206.1,26.2 188.7,44.3 174.7,34.9 L174.7,5.4 Z" id="Shape" fill="#291300"></path>
                    <path d="M193.8,31 C192.2,31.3 190.8,31.3 189.9,31 L189.9,25.4 C190.7,25.6 191.5,25.7 192.5,25.8 C193.4,25.8 194.3,25.7 195,25.5 C195.5,25.3 195.9,25.1 196.1,24.9 C196.4,24.7 196.5,24.4 196.5,24.1 C196.5,23.9 196.4,23.7 196.2,23.6 C196,23.5 195.6,23.4 195,23.4 C194.3,23.3 193.9,23.3 193.8,23.3 C192.8,23.1 192,22.9 191.4,22.5 C190.8,22.1 190.4,21.6 190.2,21 C190,20.3 189.8,19.4 189.8,18.3 C189.8,15.1 191.2,12.7 193.9,11.1 L193.9,8.4 L198.9,6.8 L198.9,9.4 C200.1,9.2 201,9.2 201.7,9.2 L201.7,14.8 C200.2,14.5 198.8,14.5 197.6,14.9 C196.4,15.3 195.8,15.8 195.8,16.3 C195.8,16.5 195.9,16.6 196.1,16.7 C196.3,16.8 196.8,16.8 197.4,16.8 L198,16.8 C199.2,16.8 200.2,17.1 200.8,17.5 C201.4,17.9 201.9,18.5 202.1,19.2 C202.3,19.9 202.4,20.9 202.4,22.1 C202.4,23.5 202.1,24.8 201.5,26 C200.9,27.2 200,28.2 198.8,29 L198.8,31.9 L193.8,33.5 L193.8,31 L193.8,31 Z" id="Shape" fill="url(#radialGradient-8)"></path>
                </g>
            </g>
        </g>
    </g>
</svg>