<?xml version="1.0" encoding="utf-8"?>
<svg version="1.1" id="Layer_1" xmlns="http://www.w3.org/2000/svg" xmlns:xlink="http://www.w3.org/1999/xlink" x="0px" y="0px"
	 viewBox="0 0 300 48" enable-background="new 0 0 300 48" xml:space="preserve">
<g>
	<g>
		<linearGradient id="SVGID_1_" gradientUnits="userSpaceOnUse" x1="10.5374" y1="11.2076" x2="15.0129" y2="36.589">
			<stop  offset="0" style="stop-color:#FFFFFF"/>
			<stop  offset="0.2315" style="stop-color:#CACFFF"/>
			<stop  offset="0.5222" style="stop-color:#FFFFFF"/>
			<stop  offset="0.7438" style="stop-color:#D8E8FF"/>
			<stop  offset="1" style="stop-color:#F2FFFF"/>
		</linearGradient>
		<polygon fill="url(#SVGID_1_)" points="18.9,21 6.6,21 6.6,13 0.6,13 0.6,34.8 6.6,34.8 6.6,26.3 18.9,26.3 18.9,34.8 25,34.8 
			25,13 18.9,13 		"/>
		<linearGradient id="SVGID_2_" gradientUnits="userSpaceOnUse" x1="41.1067" y1="11.9099" x2="45.3356" y2="35.8931">
			<stop  offset="0" style="stop-color:#FFFFFF"/>
			<stop  offset="0.2315" style="stop-color:#CACFFF"/>
			<stop  offset="0.5222" style="stop-color:#FFFFFF"/>
			<stop  offset="0.7438" style="stop-color:#D8E8FF"/>
			<stop  offset="1" style="stop-color:#F2FFFF"/>
		</linearGradient>
		<path fill="url(#SVGID_2_)" d="M54.4,14.2c-0.8-0.7-2-1.1-3.7-1.4c-0.9-0.1-2.2-0.2-4-0.2h-7.1c-1.8,0-3.1,0.1-4,0.2
			c-1.6,0.2-2.8,0.7-3.7,1.4c-1.4,1.2-2.1,3.5-2.1,6.9v6c0,3.1,0.7,5.3,2.1,6.5c0.8,0.6,1.8,1.1,3.1,1.3c1,0.2,2.5,0.2,4.5,0.2h7
			c2,0,3.5-0.1,4.6-0.3c1.3-0.2,2.3-0.6,3.1-1.3c1.4-1.2,2.1-3.4,2.1-6.6v-6.1C56.5,17.6,55.8,15.4,54.4,14.2z M50.4,25.4
			c0,1.7-0.4,2.8-1.2,3.4c-0.7,0.5-2.1,0.8-4.1,0.8h-3.8c-2,0-3.4-0.3-4.1-0.8c-0.8-0.6-1.2-1.7-1.2-3.4v-3c0-1.8,0.4-3,1.2-3.6
			c0.7-0.5,2-0.8,4.1-0.8h3.8c2,0,3.4,0.3,4.1,0.8c0.8,0.6,1.2,1.7,1.2,3.4V25.4z"/>
		<linearGradient id="SVGID_3_" gradientUnits="userSpaceOnUse" x1="67.8766" y1="11.9068" x2="72.1936" y2="36.3897">
			<stop  offset="0" style="stop-color:#FFFFFF"/>
			<stop  offset="0.2315" style="stop-color:#CACFFF"/>
			<stop  offset="0.5222" style="stop-color:#FFFFFF"/>
			<stop  offset="0.7438" style="stop-color:#D8E8FF"/>
			<stop  offset="1" style="stop-color:#F2FFFF"/>
		</linearGradient>
		<polygon fill="url(#SVGID_3_)" points="67.9,13 61.9,13 61.9,34.8 81,34.8 81,29.5 67.9,29.5 		"/>
		<linearGradient id="SVGID_4_" gradientUnits="userSpaceOnUse" x1="91.6266" y1="10.8907" x2="95.8225" y2="34.687">
			<stop  offset="0" style="stop-color:#FFFFFF"/>
			<stop  offset="0.2315" style="stop-color:#CACFFF"/>
			<stop  offset="0.5222" style="stop-color:#FFFFFF"/>
			<stop  offset="0.7438" style="stop-color:#D8E8FF"/>
			<stop  offset="1" style="stop-color:#F2FFFF"/>
		</linearGradient>
		<polygon fill="url(#SVGID_4_)" points="97,13 92,19.9 87.3,13 79.9,13 89,25.2 89,34.8 95,34.8 95,25.2 104.1,13 		"/>
	</g>
	<g>
		<linearGradient id="SVGID_5_" gradientUnits="userSpaceOnUse" x1="173.789" y1="11.5046" x2="178.0301" y2="35.5571">
			<stop  offset="0" style="stop-color:#FFC119"/>
			<stop  offset="0.2315" style="stop-color:#FF9119"/>
			<stop  offset="0.5222" style="stop-color:#FFC119"/>
			<stop  offset="0.7438" style="stop-color:#FFAA19"/>
			<stop  offset="1" style="stop-color:#FFC119"/>
		</linearGradient>
		<path fill="url(#SVGID_5_)" d="M183.9,23.2c1.3-0.3,2.2-0.8,2.6-1.5c0.4-0.6,0.6-1.7,0.6-3.1c0-1.2-0.1-2.1-0.3-2.8
			c-0.3-0.7-0.7-1.3-1.4-1.8c-0.9-0.6-2.9-1-5.9-1h-14.1v21.9h13.6c3.3,0,5.5-0.3,6.7-0.9c1.4-0.7,2-2.1,2-4.2v-2.3
			c0-1.4-0.3-2.5-0.9-3.1C186.3,23.6,185.3,23.3,183.9,23.2z M168,15.3h11.6c2.4,0,3.8,0.2,4.4,0.6c0.6,0.4,0.9,1.3,0.9,2.9
			c0,1.5-0.4,2.5-1.2,2.9c-0.6,0.3-2.1,0.5-4.4,0.5H168V15.3z M184.6,31.7c-0.6,0.5-1.8,0.7-3.7,0.7H168v-7.6h12.9
			c1.9,0,3.2,0.3,3.8,0.8c0.6,0.5,0.9,1.6,0.9,3.3C185.5,30.2,185.2,31.2,184.6,31.7z"/>
		<linearGradient id="SVGID_6_" gradientUnits="userSpaceOnUse" x1="202.8902" y1="11.9987" x2="207.0877" y2="35.8036">
			<stop  offset="0" style="stop-color:#FFC119"/>
			<stop  offset="0.2315" style="stop-color:#FF9119"/>
			<stop  offset="0.5222" style="stop-color:#FFC119"/>
			<stop  offset="0.7438" style="stop-color:#FFAA19"/>
			<stop  offset="1" style="stop-color:#FFC119"/>
		</linearGradient>
		<path fill="url(#SVGID_6_)" d="M212,12.9c-0.8-0.1-2.1-0.2-3.7-0.2h-6.6c-1.7,0-2.9,0.1-3.7,0.2c-1.5,0.2-2.6,0.7-3.4,1.4
			c-1.3,1.2-2,3.5-2,6.9v6c0,3.1,0.7,5.3,2,6.5c0.7,0.6,1.7,1,2.9,1.3c0.9,0.2,2.3,0.3,4.2,0.3h6.6c1.7,0,2.9-0.1,3.7-0.2
			c1.5-0.2,2.6-0.7,3.4-1.4c1.3-1.2,2-3.4,2-6.6v-6.1c0-3.2-0.7-5.5-2-6.6C214.6,13.5,213.5,13.1,212,12.9z M214.7,27
			c0,1.9-0.2,3.2-0.7,3.9c-0.7,1.1-2.2,1.6-4.5,1.6h-8.9c-2.3,0-3.8-0.5-4.5-1.6c-0.5-0.7-0.8-2.2-0.8-4.3V21c0-2.1,0.3-3.5,0.8-4.3
			c0.7-1.1,2.2-1.6,4.5-1.6h8.9c2.3,0,3.8,0.5,4.5,1.6c0.5,0.7,0.7,2,0.7,3.9V27z"/>
		<linearGradient id="SVGID_7_" gradientUnits="userSpaceOnUse" x1="233.0016" y1="11.9987" x2="237.199" y2="35.8036">
			<stop  offset="0" style="stop-color:#FFC119"/>
			<stop  offset="0.2315" style="stop-color:#FF9119"/>
			<stop  offset="0.5222" style="stop-color:#FFC119"/>
			<stop  offset="0.7438" style="stop-color:#FFAA19"/>
			<stop  offset="1" style="stop-color:#FFC119"/>
		</linearGradient>
		<path fill="url(#SVGID_7_)" d="M242.1,12.9c-0.8-0.1-2.1-0.2-3.7-0.2h-6.6c-1.7,0-2.9,0.1-3.7,0.2c-1.5,0.2-2.6,0.7-3.4,1.4
			c-1.3,1.2-2,3.5-2,6.9v6c0,3.1,0.7,5.3,2,6.5c0.7,0.6,1.7,1,2.9,1.3c0.9,0.2,2.3,0.3,4.2,0.3h6.6c1.7,0,2.9-0.1,3.7-0.2
			c1.5-0.2,2.6-0.7,3.4-1.4c1.3-1.2,2-3.4,2-6.6v-6.1c0-3.2-0.7-5.5-2-6.6C244.7,13.5,243.6,13.1,242.1,12.9z M244.8,27
			c0,1.9-0.2,3.2-0.7,3.9c-0.7,1.1-2.2,1.6-4.5,1.6h-8.9c-2.3,0-3.8-0.5-4.5-1.6c-0.5-0.7-0.8-2.2-0.8-4.3V21c0-2.1,0.3-3.5,0.8-4.3
			c0.7-1.1,2.2-1.6,4.5-1.6h8.9c2.3,0,3.8,0.5,4.5,1.6c0.5,0.7,0.7,2,0.7,3.9V27z"/>
		<linearGradient id="SVGID_8_" gradientUnits="userSpaceOnUse" x1="261.6576" y1="12.2277" x2="265.7837" y2="35.6279">
			<stop  offset="0" style="stop-color:#FFC119"/>
			<stop  offset="0.2315" style="stop-color:#FF9119"/>
			<stop  offset="0.5222" style="stop-color:#FFC119"/>
			<stop  offset="0.7438" style="stop-color:#FFAA19"/>
			<stop  offset="1" style="stop-color:#FFC119"/>
		</linearGradient>
		<path fill="url(#SVGID_8_)" d="M273.1,23.3c-0.9-0.6-2.7-0.9-5.4-0.9h-7.1c-2,0-3.4-0.2-4.1-0.6c-0.8-0.5-1.3-1.5-1.3-3.1
			c0-1.4,0.4-2.4,1.1-2.9c0.7-0.5,2.1-0.7,4.1-0.7h6.7c1.9,0,3.2,0.2,3.8,0.7c0.7,0.5,1.1,1.5,1.1,3V19l2.4-1.2v-0.6
			c0-2.1-0.4-2.3-1.3-3.2c-0.6-0.6-1.6-1-2.9-1.2c-0.9-0.1-2.4-0.2-4.5-0.2h-4.5c-3.1,0-5.2,0.4-6.5,1.2c-1.3,0.9-2,2.5-2,4.9
			c0,2.2,0.5,3.8,1.6,4.7c1.1,0.9,2.9,1.3,5.5,1.3h8.3c1.6,0,2.8,0.2,3.3,0.6c0.7,0.5,1,1.5,1,3c0,1.8-0.5,2.9-1.4,3.5
			c-0.8,0.5-2.5,0.8-5,0.8h-5.1c-2.1,0-3.8-0.3-4.4-0.7c-0.6-0.5-1.4-0.9-1.4-2.4c0-0.1,0.1-0.7,0.1-0.7l-2.4-1.2
			c0,0.8-0.1,1.4-0.1,1.7c0,2.1,0.6,3.6,1.7,4.4c1.1,0.9,3,1.3,5.6,1.3h6.7c3,0,5.1-0.5,6.3-1.4c1.2-0.9,1.8-2.6,1.8-5.1
			c0-1.4-0.1-2.5-0.4-3.3C274.3,24.4,273.8,23.7,273.1,23.3z"/>
		<linearGradient id="SVGID_9_" gradientUnits="userSpaceOnUse" x1="289.0843" y1="11.1233" x2="293.1923" y2="34.4208">
			<stop  offset="0" style="stop-color:#FFC119"/>
			<stop  offset="0.2315" style="stop-color:#FF9119"/>
			<stop  offset="0.5222" style="stop-color:#FFC119"/>
			<stop  offset="0.7438" style="stop-color:#FFAA19"/>
			<stop  offset="1" style="stop-color:#FFC119"/>
		</linearGradient>
		<polygon fill="url(#SVGID_9_)" points="278.7,13 278.7,15.4 288.4,15.4 288.4,34.8 290.8,34.8 290.8,15.4 300.6,15.4 300.6,13 		
			"/>
	</g>
	<linearGradient id="SVGID_10_" gradientUnits="userSpaceOnUse" x1="109.4408" y1="23.8989" x2="156.5747" y2="23.8989">
		<stop  offset="0" style="stop-color:#FFFFFF"/>
		<stop  offset="0.2315" style="stop-color:#CACFFF"/>
		<stop  offset="0.5222" style="stop-color:#FFFFFF"/>
		<stop  offset="0.7438" style="stop-color:#D8E8FF"/>
		<stop  offset="1" style="stop-color:#F2FFFF"/>
	</linearGradient>
	<path fill="url(#SVGID_10_)" d="M133,0.3c-13,0-23.6,10.6-23.6,23.6S120,47.5,133,47.5s23.6-10.6,23.6-23.6S146,0.3,133,0.3z
		 M133,45.5c-11.9,0-21.6-9.7-21.6-21.6S121.1,2.3,133,2.3c11.9,0,21.6,9.7,21.6,21.6S144.9,45.5,133,45.5z"/>
	<g>
		<linearGradient id="SVGID_11_" gradientUnits="userSpaceOnUse" x1="132.561" y1="40.2826" x2="134.6298" y2="28.55">
			<stop  offset="0" style="stop-color:#FFC119"/>
			<stop  offset="0.2315" style="stop-color:#FF9119"/>
			<stop  offset="0.5222" style="stop-color:#FFC119"/>
			<stop  offset="0.7438" style="stop-color:#FFAA19"/>
			<stop  offset="1" style="stop-color:#FFC119"/>
		</linearGradient>
		<path fill="url(#SVGID_11_)" d="M136.6,30.1c-0.2-0.4-0.5-0.8-0.7-1.3c0-0.1-0.1-0.1-0.1-0.2c0,0,0,0,0,0c-0.1,0-0.2,0.1-0.2,0.1
			c-1.1,0.6-2.3,0.7-3.6,0.5c-0.5-0.1-1-0.3-1.5-0.5c-0.1,0-0.1-0.1-0.2-0.1c0,0-0.1,0.1-0.1,0.1c-1.5,2.6-3,5.2-4.5,7.8
			c-0.2,0.4-0.4,0.7-0.6,1.1c0,0.1-0.1,0.1-0.1,0.2c0,0,0,0,0,0c0,0,0.1,0,0.1,0.1c0.7,0.4,1.4,0.7,2.1,1c1,0.4,2.1,0.7,3.2,0.9
			c0.6,0.1,1.3,0.2,1.9,0.2c0.7,0,1.5,0,2.2-0.1c0.6-0.1,1.2-0.1,1.7-0.3c1.1-0.2,2.1-0.5,3.2-1c0.5-0.2,1.1-0.5,1.6-0.8
			c0.1,0,0.1,0,0.1-0.1c0-0.1,0-0.1-0.1-0.2C139.5,35.2,138,32.7,136.6,30.1z"/>
		<linearGradient id="SVGID_12_" gradientUnits="userSpaceOnUse" x1="141.9201" y1="24.5213" x2="144.3869" y2="10.5315">
			<stop  offset="0" style="stop-color:#FFC119"/>
			<stop  offset="0.2315" style="stop-color:#FF9119"/>
			<stop  offset="0.5222" style="stop-color:#FFC119"/>
			<stop  offset="0.7438" style="stop-color:#FFAA19"/>
			<stop  offset="1" style="stop-color:#FFC119"/>
		</linearGradient>
		<path fill="url(#SVGID_12_)" d="M149.1,22.7c0-0.6-0.1-1.2-0.2-1.8c-0.3-1.7-0.9-3.3-1.7-4.8c-0.9-1.7-2.1-3.2-3.6-4.4
			c-0.7-0.6-1.5-1.2-2.3-1.7c0,0-0.1,0-0.1-0.1c0,0,0,0,0,0c-1.7,3-3.5,6-5.2,9.1c0,0,0,0,0,0.1c0,0.1,0.1,0.1,0.2,0.1
			c1.2,0.8,2,1.9,2.4,3.3c0.1,0.4,0.2,0.8,0.2,1.2c0,0.1,0,0.1,0,0.2c0,0,0,0,0.1,0c3.5,0,7,0,10.4,0c0,0,0.1,0,0.1,0
			c0-0.1,0-0.1,0-0.2C149.1,23.4,149.1,23,149.1,22.7z"/>
		<linearGradient id="SVGID_13_" gradientUnits="userSpaceOnUse" x1="122.7713" y1="24.967" x2="125.4021" y2="10.0471">
			<stop  offset="0" style="stop-color:#FFC119"/>
			<stop  offset="0.2315" style="stop-color:#FF9119"/>
			<stop  offset="0.5222" style="stop-color:#FFC119"/>
			<stop  offset="0.7438" style="stop-color:#FFAA19"/>
			<stop  offset="1" style="stop-color:#FFC119"/>
		</linearGradient>
		<path fill="url(#SVGID_13_)" d="M127.4,23.9c0-0.1,0-0.1,0-0.2c0-0.2,0-0.5,0.1-0.7c0.2-1,0.6-2,1.3-2.7c0.3-0.4,0.7-0.7,1.2-1
			c0.1,0,0.1-0.1,0.2-0.1c0,0-0.1-0.1-0.1-0.2c-0.3-0.5-0.6-1-0.8-1.5c-1.2-2-2.3-4-3.5-6c-0.3-0.5-0.5-0.9-0.8-1.4
			c0-0.1,0-0.1-0.1-0.1c0,0,0,0,0,0c0,0-0.1,0-0.1,0.1c-1,0.6-1.9,1.2-2.7,2c-0.8,0.7-1.5,1.6-2.2,2.5c-1.1,1.6-1.9,3.3-2.5,5.1
			c-0.2,0.8-0.4,1.7-0.5,2.6c-0.1,0.5-0.1,1-0.1,1.5c0,0.1,0,0.1,0,0.2c0.1,0,0.2,0,0.3,0c2.2,0,4.4,0,6.6,0c1.2,0,2.4,0,3.5,0
			C127.3,23.9,127.4,24,127.4,23.9z"/>
		<linearGradient id="SVGID_14_" gradientUnits="userSpaceOnUse" x1="132.6031" y1="26.0576" x2="133.3513" y2="21.8146">
			<stop  offset="0" style="stop-color:#FFC119"/>
			<stop  offset="0.2315" style="stop-color:#FF9119"/>
			<stop  offset="0.5222" style="stop-color:#FFC119"/>
			<stop  offset="0.7438" style="stop-color:#FFAA19"/>
			<stop  offset="1" style="stop-color:#FFC119"/>
		</linearGradient>
		<path fill="url(#SVGID_14_)" d="M133,26.1c1.2,0,2.2-1,2.1-2.2c0-1.2-1-2.2-2.1-2.2c-1.1,0-2.2,0.9-2.2,2.1
			C130.8,25.1,131.8,26.1,133,26.1z"/>
	</g>
</g>
</svg>
