<?xml version="1.0" encoding="UTF-8"?>
<svg viewBox="0 0 111 45" version="1.1" xmlns="http://www.w3.org/2000/svg" xmlns:xlink="http://www.w3.org/1999/xlink">
    <!-- Generator: Sketch 42 (36781) - http://www.bohemiancoding.com/sketch -->
    <title>Logo</title>
    <desc>Created with Sketch.</desc>
    <defs>
        <linearGradient x1="50%" y1="0%" x2="50%" y2="100%" id="linearGradient-1">
            <stop stop-color="#FFBA68" offset="0%"></stop>
            <stop stop-color="#F64B6A" offset="100%"></stop>
        </linearGradient>
        <path d="M20.8380925,2.3948969 C20.4954312,3.05711319 15.5696745,13.6525738 14.8415191,14.9983682 L14.6487721,14.9983682 C13.5779555,13.631212 11.0936608,10.1065124 10.3655054,9.08114523 C9.14477441,10.7900905 6.81039406,14.2293428 5.91090805,15.4683281 L5.71816105,15.4683281 C4.96858938,14.0157247 1.07081668,4.36018395 0.149914335,2.15991693 L4.24043404,0.664589823 C4.90434038,2.86485685 6.36065106,7.5430945 6.66047973,8.39756713 C6.9603084,7.84215992 8.60936608,5.27874203 10.3655054,2.35217327 L10.5582524,2.35217327 C12.2501428,4.95831479 13.7278698,6.94496366 14.4131925,8.03441626 L14.4774415,8.03441626 C14.8843518,6.98768729 16.4905768,1.94629877 16.8974872,0.83548435 L20.8380925,2.3948969 Z" id="path-2"></path>
        <mask id="mask-3" maskContentUnits="userSpaceOnUse" maskUnits="objectBoundingBox" x="-2" y="-2" width="24.6881782" height="18.8037383">
            <rect x="-1.85008567" y="-1.33541018" width="24.6881782" height="18.8037383" fill="white"></rect>
            <use xlink:href="#path-2" fill="black"></use>
        </mask>
        <path d="M26.5134209,8.69663255 C26.5134209,10.619196 26.5776699,14.0584483 26.5990862,14.5070464 L22.1230725,14.5070464 C22.1659052,13.6525738 22.1873215,9.16659249 22.1873215,8.65390892 L22.1873215,6.58181279 C22.1873215,6.26138555 22.1230725,1.3054443 22.1230725,0.856846165 L26.5990862,0.856846165 C26.5776699,1.19863522 26.5134209,4.31746032 26.5134209,6.62453642 L26.5134209,8.69663255 Z" id="path-4"></path>
        <mask id="mask-5" maskContentUnits="userSpaceOnUse" maskUnits="objectBoundingBox" x="-2" y="-2" width="8.47601371" height="17.6502003">
            <rect x="20.1230725" y="-1.14315383" width="8.47601371" height="17.6502003" fill="white"></rect>
            <use xlink:href="#path-4" fill="black"></use>
        </mask>
        <path d="M33.4094803,0.856846165 C33.388064,1.3054443 33.3023986,5.25738021 33.3023986,7.67126539 L33.3023986,11.195965 C33.773558,11.195965 36.0436893,11.195965 37.5856653,11.1105177 L37.6070817,14.677941 C37.1359223,14.677941 30.4540263,14.4856846 28.9120503,14.4856846 C28.9762993,13.4603175 28.9762993,9.35884884 28.9762993,8.88888889 L28.9762993,6.325471 C28.9762993,6.02640558 28.9334666,1.19863522 28.8906339,0.83548435 L33.4094803,0.83548435 L33.4094803,0.856846165 Z" id="path-6"></path>
        <mask id="mask-7" maskContentUnits="userSpaceOnUse" maskUnits="objectBoundingBox" x="-2" y="-2" width="12.7164477" height="17.8424566">
            <rect x="26.8906339" y="-1.16451565" width="12.7164477" height="17.8424566" fill="white"></rect>
            <use xlink:href="#path-6" fill="black"></use>
        </mask>
        <path d="M40.2327242,6.04776739 C40.2327242,5.64189289 40.2113078,1.39089156 40.1256425,0.856846165 C43.6807539,0.856846165 45.7367219,0.963655244 47.5356939,1.19863522 C52.5899486,1.88221332 53.5536836,4.50971666 53.5536836,6.06912921 C53.5536836,12.1145231 46.3363792,14.6138555 40.1256425,14.6138555 C40.2113078,13.7380211 40.2327242,8.95297434 40.2327242,8.44029076 L40.2327242,6.04776739 L40.2327242,6.04776739 Z M44.4731582,11.1105177 C46.3577955,10.8114523 48.9705882,9.4442961 48.9705882,6.75270731 C48.9705882,4.48835484 46.6576242,3.95430945 44.4731582,3.95430945 L44.4731582,11.1105177 Z" id="path-8"></path>
        <mask id="mask-9" maskContentUnits="userSpaceOnUse" maskUnits="objectBoundingBox" x="-2" y="-2" width="17.4280411" height="17.7570093">
            <rect x="38.1256425" y="-1.14315383" width="17.4280411" height="17.7570093" fill="white"></rect>
            <use xlink:href="#path-8" fill="black"></use>
        </mask>
        <path d="M68.656482,13.0758048 C69.234723,12.0931613 74.5673901,3.078475 76.4520274,0.13054443 L76.6447744,0.13054443 C78.9577384,3.6125204 84.1404911,11.7513722 84.9543118,12.8408248 L81.1422045,15.0838155 C80.5853798,14.1438956 79.6002284,12.4349503 79.4074814,12.1145231 L73.6036551,12.4349503 C73.4537407,12.7126539 72.7470017,14.207981 72.3400914,15.1051773 L68.656482,13.0758048 Z M78.0796688,9.42293428 C77.5442604,8.33348168 76.8161051,6.96632547 76.4520274,6.17593829 C75.9808681,7.09449637 75.3169617,8.52573802 74.8243861,9.59382881 L78.0796688,9.42293428 Z" id="path-10"></path>
        <mask id="mask-11" maskContentUnits="userSpaceOnUse" maskUnits="objectBoundingBox" x="-2" y="-2" width="20.2978298" height="18.9746328">
            <rect x="66.656482" y="-1.86945557" width="20.2978298" height="18.9746328" fill="white"></rect>
            <use xlink:href="#path-10" fill="black"></use>
        </mask>
        <path d="M86.0251285,11.5591159 C87.8883495,11.6232013 89.9443175,11.0891559 89.9443175,10.1919596 C89.9443175,9.80744697 89.6230725,9.57246699 88.0596802,8.69663255 C86.8389492,8.01305444 85.4468875,7.05177273 85.4468875,5.42827474 C85.4468875,3.27073135 88.3166762,0.920931613 93.1996002,0.515057113 L93.7135922,3.71932948 C91.3149629,3.71932948 90.0942319,4.12520398 90.0942319,4.91559116 C90.0942319,5.38555111 90.7153055,5.66325471 91.9574529,6.28274737 C92.9854369,6.77406913 94.6344946,7.64990358 94.6344946,9.38021065 C94.6344946,11.4950304 92.4286122,14.1866192 86.5605368,14.8488355 L86.0251285,11.5591159 Z" id="path-12"></path>
        <mask id="mask-13" maskContentUnits="userSpaceOnUse" maskUnits="objectBoundingBox" x="-2" y="-2" width="13.1876071" height="18.3337784">
            <rect x="83.4468875" y="-1.48494289" width="13.1876071" height="18.3337784" fill="white"></rect>
            <use xlink:href="#path-12" fill="black"></use>
        </mask>
        <path d="M104.978584,14.6993028 C104.293261,14.6993028 97.3329526,14.5070464 96.3263849,14.5070464 C96.3906339,13.4816793 96.3906339,9.38021065 96.3906339,8.93161252 L96.3906339,6.34683281 C96.3906339,6.04776739 96.3478013,1.41225337 96.3263849,0.856846165 C97.3972016,0.856846165 103.886351,0.557780745 104.59309,0.515057113 L104.678755,3.67660584 C103.972016,3.67660584 100.930897,3.78341492 100.588235,3.78341492 L100.588235,6.325471 C100.973729,6.325471 103.179612,6.21866192 104.036265,6.15457647 L104.100514,9.23067794 C103.586522,9.23067794 101.016562,9.14523068 100.588235,9.14523068 L100.588235,11.430945 C101.080811,11.430945 103.993432,11.4736686 104.914335,11.3882213 L104.978584,14.6993028 Z" id="path-14"></path>
        <mask id="mask-15" maskContentUnits="userSpaceOnUse" maskUnits="objectBoundingBox" x="-2" y="-2" width="12.6521987" height="18.1842457">
            <rect x="94.3263849" y="-1.48494289" width="12.6521987" height="18.1842457" fill="white"></rect>
            <use xlink:href="#path-14" fill="black"></use>
        </mask>
        <path d="M66.5662479,14.6565791 C65.9023415,14.7420264 65.1956025,14.8061119 64.2961165,14.8061119 C57.9782981,14.8061119 55.6439178,11.6018395 55.6439178,9.01705978 C55.6439178,5.83414924 58.5565391,1.96766058 65.1956025,0.536418929 L66.0522559,4.23201305 C61.9831525,4.95831479 60.3555111,6.7313455 60.3555111,8.54709984 C60.3555111,10.0210651 61.9831525,11.2386886 64.5316962,11.2386886 C65.3026842,11.2386886 65.9237579,11.1746032 66.3735009,11.1318795 L66.5662479,14.6565791 Z" id="path-16"></path>
        <mask id="mask-17" maskContentUnits="userSpaceOnUse" maskUnits="objectBoundingBox" x="-2" y="-2" width="14.9223301" height="18.2696929">
            <rect x="53.6439178" y="-1.46358107" width="14.9223301" height="18.2696929" fill="white"></rect>
            <use xlink:href="#path-16" fill="black"></use>
        </mask>
    </defs>
    <g id="Key-Screens" stroke="none" stroke-width="1" fill="none" fill-rule="evenodd">
        <g id="2.01-Home---Signed-in" transform="translate(-40.000000, -33.000000)" fill-rule="nonzero">
            <g id="**-Global-navigation">
                <g id="Logo">
                    <g transform="translate(43.000000, 33.000000)">
                        <g id="Scratchs" transform="translate(30.000000, 0.000000)" fill="url(#linearGradient-1)">
                            <path d="M13.6148221,11.1170722 L13.4867831,11.2222124 C13.8709003,10.8437077 14.3403769,10.5072591 14.8098536,10.1708105 C14.1483183,10.4021189 13.4441034,10.6544554 12.9106072,11.0539881 C12.3984509,11.4535208 12.099693,11.9792217 12.3344313,12.7572591 C11.6728961,12.3577264 10.5418842,12.9885675 10.6912632,13.1357638 C10.6272436,13.4091283 10.5632241,13.6614647 10.4778647,13.9138012 C10.5418842,13.7455769 10.6059038,13.5773526 10.6699233,13.4091283 C10.6059038,13.5773526 10.5418842,13.7455769 10.4778647,13.9138012 C10.2004467,14.6918386 9.73097006,15.3647357 9.19747389,16.0376329 C8.66397773,16.6895021 7.98110264,17.2993152 7.31956739,17.9301563 C6.95679,18.2876329 6.38061414,19.0025862 5.78309843,19.7175395 C5.63371951,19.9067918 5.48434058,20.0750161 5.33496165,20.2642685 C5.20692257,20.4535208 5.05754365,20.6217451 4.92950457,20.7899694 C4.67342641,21.126418 4.4386881,21.3997825 4.26796932,21.5890348 C4.16127009,21.694175 4.0759107,21.8203432 3.96921147,21.9254834 C4.16127009,21.7572591 4.16127009,21.7572591 4.35332871,21.5680068 C4.24662948,22.240904 4.18260994,22.829689 4.05457086,23.397446 C4.20394978,23.376418 4.33198886,23.4184741 4.58806702,23.3133339 L4.37466856,23.5236143 C4.56672718,23.923147 4.31064902,24.4278199 4.31064902,24.7432404 C4.18260994,24.5960442 4.05457086,24.7852965 3.94787162,24.9324928 L4.09725055,24.9324928 C3.71313331,25.5423058 3.49973485,26.3623993 3.20097699,26.9301563 C3.1582973,27.0142685 3.07293791,27.0352965 3.00891837,27.0563245 L2.90221914,27.6871657 C2.73150037,27.5399694 2.53944175,28.0866984 2.5181019,27.7502498 C2.58212144,28.2969787 2.28336359,28.6544554 2.34738313,29.1801563 C1.77120727,30.6310909 1.47244942,32.2923058 1.17369156,33.8904367 L1.2377111,33.8694086 C1.13101187,34.4371657 1.17369156,34.9628666 0.896273558,35.5726797 C0.853593865,36.0773526 0.661535245,36.7292217 0.682875092,36.9395021 C0.469476626,37.444175 0.405457086,37.6544554 0.149378926,38.1381002 C0.19205862,38.0750161 0.12803908,38.2011843 0.0640195399,38.3063245 C0.0426796932,38.3273526 0.0426796932,38.3483806 0.0213398466,38.3694086 C0.0213398466,38.3904367 3.55271368e-14,38.4114647 3.55271368e-14,38.4114647 C3.55271368e-14,38.4324928 3.55271368e-14,38.4324928 0.0213398466,38.3694086 C0.234738313,38.0539881 0.234738313,38.03296 0.426796932,37.7806236 L0.405457086,37.7806236 C0.832254018,37.1708105 1.25905095,36.5820255 1.70718773,35.9722124 C1.9205862,35.6778199 2.13398466,35.3834273 2.34738313,35.0890348 C2.58212144,34.7946423 2.79551991,34.5002498 3.03025822,34.2058572 C3.478395,33.3647357 4.1185904,32.5236143 4.63074672,31.6824928 C5.18558273,30.7782871 5.65505935,29.7479133 5.95381721,28.8857638 C5.9964969,28.6754834 6.25257506,28.6123993 6.46597353,28.5282871 C6.82875092,27.7923058 7.46894632,26.9301563 7.83172371,26.0680068 C7.83172371,26.0890348 7.81038386,26.0890348 7.81038386,26.1100628 C8.02378233,25.6684741 8.47191911,25.4792217 8.70665742,25.058661 C8.64263788,25.0166049 8.68531757,24.9535208 8.66397773,24.9114647 C8.8346965,24.9535208 9.06943481,24.2806236 9.28283328,23.5446423 C9.4748919,22.808661 9.70963021,22.0726797 9.83766929,22.0726797 C9.85900914,22.0306236 9.85900914,21.9675395 9.88034898,21.9254834 C10.2217865,21.5469787 10.6912632,21.2105301 11.1180601,20.8951096 C11.544857,20.558661 11.9503141,20.2642685 12.1637126,19.8647357 C12.1423727,19.6123993 12.1423727,19.3600628 12.0783532,19.1077264 C12.2917517,19.0656703 12.0570133,18.876418 12.2063923,18.7292217 C13.0386463,18.7292217 12.9532869,18.329689 12.6118494,18.3927731 C12.6758689,18.2035208 12.7825681,18.0352965 12.8892674,17.8670722 C12.9959666,17.6988479 13.1026658,17.5516516 13.2093651,17.4044554 C13.2520447,17.2362311 13.3160643,17.0890348 13.358744,16.8997825 C13.4014237,16.7525862 13.5081229,16.7525862 13.6788417,16.7736143 C13.8068808,16.4161376 13.8709003,16.60539 14.1269785,16.3320255 C14.3617168,16.3951096 14.3617168,15.3226797 14.4897559,15.3016516 L14.4897559,15.3647357 C14.7671739,15.0282871 15.2579903,15.0493152 15.4927286,14.7128666 C16.2396233,13.808661 16.837139,12.6521189 17.4773344,11.7479133 C17.3492953,11.6217451 17.3706351,11.9792217 17.1999164,11.8320255 C17.5840336,11.3273526 18.0961899,10.8857638 18.4376275,10.3390348 C18.5229869,10.2549227 18.6510259,10.1708105 18.7150455,10.1497825 C18.8644244,10.0025862 18.7363853,10.0025862 18.8217447,9.87641799 L18.9071041,9.9395021 C18.9497838,9.68716565 19.1631823,9.72922173 19.2272018,9.51894135 C19.205862,9.47688528 19.2485416,9.41380117 19.2698815,9.35071705 C19.333901,9.41380117 19.3765807,9.14043668 19.4406003,9.20352079 L19.4406003,9.20352079 C19.4619401,9.16146472 19.48328,9.14043668 19.5046198,9.09838061 C19.5046198,9.05632453 19.5686393,8.80398808 19.6326589,8.55165163 C19.6966784,8.29931519 19.7820378,8.06800677 19.8033777,8.0259507 L19.8247175,8.00492266 C19.888737,7.89978248 19.888737,7.81567033 19.8460574,7.87875444 L19.9314167,7.75258621 L19.9314167,7.77361425 L20.0167761,7.64744603 C20.038116,7.62641799 20.0594558,7.62641799 20.0594558,7.66847406 C20.0807957,7.58436191 20.1448152,7.50024977 20.1874949,7.41613762 C20.038116,7.60538995 19.8460574,7.81567033 19.6539987,7.96286659 C19.6966784,7.8577264 19.8247175,7.73155818 19.888737,7.64744603 C19.9954363,7.56333388 20.1661551,7.3530535 20.2941941,7.20585724 C20.315534,7.16380117 20.315534,7.10071705 20.3795535,7.03763294 C20.4222332,7.01660491 20.4435731,6.93249276 20.5075926,6.86940864 C20.4649129,6.97454883 20.4008934,7.03763294 20.3582137,7.14277313 C20.4008934,7.16380117 20.5075926,6.95352079 20.5502723,6.86940864 C20.5716121,6.82735257 20.6783114,6.65912827 20.7423309,6.55398808 C20.7209911,6.6170722 20.8063505,6.46987593 20.8490301,6.40679182 C20.8917098,6.32267967 20.9130497,6.2806236 20.8917098,6.30165163 C20.8917098,6.2806236 20.6996512,6.59604416 20.7636708,6.46987593 C20.7850106,6.4488479 20.87037,6.30165163 20.9130497,6.23856752 C20.9130497,6.23856752 20.87037,6.2806236 20.9130497,6.23856752 C20.9770692,6.15445537 21.0197489,6.09137126 21.0624286,6.02828715 C21.0410888,6.04931519 21.0197489,6.07034322 21.0197489,6.1123993 C21.0624286,6.04931519 20.9557294,6.19651145 20.87037,6.36473575 C20.7850106,6.51193201 20.7209911,6.68015631 20.7636708,6.59604416 C20.7423309,6.6170722 20.8276903,6.42781986 20.9130497,6.2806236 C20.9984091,6.1123993 21.1051083,5.96520304 21.0837685,6.00725911 C21.0410888,6.07034322 21.1264482,5.96520304 21.0624286,6.02828715 L21.0197489,6.1123993 C20.9557294,6.19651145 20.9343895,6.23856752 20.9343895,6.19651145 C20.9984091,6.1123993 20.9130497,6.23856752 20.8490301,6.34370771 C20.7850106,6.46987593 20.7209911,6.59604416 20.7636708,6.53296005 L20.7209911,6.57501612 C20.7423309,6.51193201 20.8490301,6.36473575 20.8917098,6.30165163 C20.8917098,6.30165163 20.9343895,6.21753948 20.9770692,6.15445537 L20.9984091,6.13342734 C21.0410888,6.07034322 21.1051083,5.98623107 21.0837685,6.02828715 C20.9557294,6.21753948 20.9770692,6.15445537 21.0410888,6.09137126 C21.0837685,6.02828715 21.147788,5.98623107 20.9984091,6.13342734 C21.1264482,6.00725911 20.9557294,6.17548341 20.8276903,6.32267967 C20.8063505,6.32267967 20.7423309,6.38576378 20.6356317,6.46987593 C20.5502723,6.55398808 20.592952,6.53296005 20.5716121,6.55398808 C20.5289324,6.59604416 20.4222332,6.68015631 20.4222332,6.65912827 C20.3795535,6.74324042 20.315534,6.76426846 20.2301746,6.82735257 C20.1661551,6.91146472 20.2515144,6.82735257 20.2088347,6.89043668 C20.1021355,6.99557687 19.9527566,7.14277313 19.8673972,7.20585724 C19.8247175,7.22688528 19.6753386,7.26894135 19.7180183,7.16380117 C19.888737,7.01660491 19.7180183,7.26894135 19.8673972,7.10071705 C19.760698,7.12174509 19.9954363,6.95352079 20.0167761,6.89043668 C19.9527566,6.91146472 19.8247175,7.01660491 19.7393581,7.10071705 L19.760698,7.10071705 C19.6753386,7.1848292 19.5259597,7.33202547 19.4192604,7.39510958 C19.4192604,7.3530535 19.3765807,7.37408154 19.4192604,7.31099743 L19.2912213,7.41613762 C19.2912213,7.43716565 19.2698815,7.45819369 19.3125612,7.43716565 C19.2698815,7.50024977 19.205862,7.54230584 19.1631823,7.56333388 C19.1418424,7.56333388 19.0138033,7.71053014 18.9071041,7.87875444 C18.8004049,8.04697874 18.6937056,8.21520304 18.6937056,8.194175 C18.6083463,8.27828715 18.5443267,8.23623107 18.501647,8.3623993 C18.501647,8.38342734 18.6723658,8.17314696 18.8217447,7.98389462 C18.9711236,7.79464229 19.1205026,7.62641799 19.0778229,7.66847406 C19.0351432,7.6895021 18.8217447,7.92081051 18.6296861,8.17314696 C18.4376275,8.42548341 18.2669087,8.67781986 18.2028892,8.65679182 C18.1388696,8.71987593 18.0961899,8.78296005 18.1388696,8.82501612 C18.0321704,8.90912827 18.0961899,8.71987593 17.9894907,8.76193201 C17.9894907,8.76193201 18.0108305,8.78296005 17.9894907,8.80398808 L17.8827915,8.82501612 C17.7974321,9.03529649 17.4773344,9.16146472 17.4133148,9.41380117 C17.4133148,9.32968902 17.3706351,9.20352079 17.4559945,9.05632453 L17.4986742,9.05632453 C17.4986742,9.03529649 17.5840336,8.93015631 17.5413539,8.90912827 C17.4133148,8.97221238 17.3279555,9.05632453 17.2639359,9.20352079 C17.2425961,9.20352079 17.1999164,9.22454883 17.1785765,9.22454883 C17.1785765,9.22454883 17.1999164,9.22454883 17.1999164,9.24557687 C17.1358968,9.24557687 17.1358968,9.24557687 17.1358968,9.22454883 C17.1358968,9.22454883 17.1358968,9.22454883 17.1358968,9.20352079 C16.9438382,9.14043668 16.837139,9.64510958 16.5810608,9.75024977 C16.5383811,9.81333388 16.6024007,9.7712778 16.559721,9.87641799 C16.3249827,10.0025862 16.132924,10.0866984 15.8981857,10.2338946 C15.8981857,10.3600628 15.9195256,10.3810909 16.0689045,10.3810909 L15.8981857,10.5072591 C15.8341662,10.2128666 15.450049,10.6123993 15.3860294,10.2969787 C15.30067,10.2969787 15.1939708,10.3810909 15.1512911,10.4862311 C15.1939708,10.5282871 15.2579903,10.6123993 15.1512911,10.7175395 C14.9378926,10.8016516 15.0019122,10.7806236 14.8098536,10.8437077 C14.7031543,10.8016516 14.7244942,10.7385675 14.6604746,10.6965114 C14.5537754,10.9488479 14.3403769,10.7175395 14.1696582,10.8857638 C14.0842988,11.011932 13.8709003,11.2222124 13.9989394,11.3273526 C13.8068808,11.3063245 13.7001815,11.2222124 13.6148221,11.1170722 Z" id="XMLID_38_"></path>
                            <path d="M26.9692982,8.37751247 L26.7985794,8.52470873 C27.268056,7.97797976 27.822892,7.45227882 28.377728,6.94760593 C27.6094936,7.38919471 26.7772395,7.87283957 26.1797238,8.46162462 C25.5608683,9.05040967 25.1980909,9.7443349 25.3688097,10.6275125 C24.6859346,10.2910639 23.3415242,11.2793816 23.4909032,11.4265779 C23.4055438,11.7630265 23.2988445,12.078447 23.1708055,12.3938676 C23.2561648,12.1835872 23.3628641,11.9733069 23.4482235,11.7419985 C23.3628641,11.9522788 23.2775047,12.1835872 23.1708055,12.3938676 C22.3812311,14.3915312 20.8020825,16.0948022 19.1589143,17.8611573 C18.7107775,18.3448022 17.9638829,19.3331199 17.1956484,20.3004097 C16.832871,20.7840545 16.4487538,21.2887274 16.1286561,21.7303162 C15.8085584,22.171905 15.5098005,22.5504097 15.2750622,22.8027461 C15.1470231,22.9499424 15.018984,23.1181667 14.9122848,23.2653629 C15.1470231,23.0130265 15.1470231,23.0130265 15.3817614,22.7817181 C15.168363,23.6228396 14.9976442,24.3798489 14.7842457,25.0948022 C14.9549645,25.0527461 15.0616637,25.0948022 15.3604216,24.9055499 L15.1043434,25.1789143 C15.2537224,25.6625592 14.8482653,26.3144284 14.8269254,26.7139611 C14.6988864,26.5457368 14.5281676,26.7980732 14.4001285,27.0083536 L14.5495074,26.9873256 C14.2934293,27.3868583 14.058691,27.8494751 13.8452925,28.3120919 C13.631894,28.7747087 13.4398354,29.2373256 13.2477768,29.6158302 C13.2050971,29.7209704 13.0983979,29.7630265 13.0343783,29.7840545 C13.0343783,29.7840545 12.9703588,29.9733069 12.9063392,30.1835872 C12.8423197,30.3728396 12.7783002,30.5831199 12.7783002,30.5831199 C12.6075814,30.4148956 12.3301634,31.1088209 12.3728431,30.6882601 C12.3515032,31.3611573 11.9460461,31.8658302 11.9460461,32.5176994 C11.1137921,34.4522788 10.4735967,36.5971386 9.91876071,38.6789143 L9.98278025,38.6578863 C9.89742086,39.036391 9.85474117,39.3938676 9.76938178,39.7513442 C9.6840224,40.1298489 9.55598332,40.4873256 9.38526454,40.9078863 C9.27856531,41.5597555 8.97980746,42.442933 8.97980746,42.6952695 C8.70238945,43.3891947 8.61703006,43.6835872 8.29693237,44.3354564 C8.33961206,44.2513442 8.27559252,44.4195685 8.19023313,44.5457368 C8.16889329,44.5877928 8.14755344,44.6088209 8.14755344,44.650877 C8.14755344,44.671905 8.12621359,44.7139611 8.12621359,44.7139611 C8.12621359,44.7349891 8.12621359,44.7349891 8.14755344,44.650877 C8.4036316,44.2303162 8.4036316,44.1882601 8.63836991,43.8307835 L8.61703006,43.8307835 C9.59866301,42.1275125 10.7510147,40.5293816 11.8606868,38.9312508 C12.1594446,38.3634938 12.5008821,37.7747087 12.8849994,37.2069517 C13.2691166,36.6391947 13.6532339,36.0714377 13.9946714,35.4826527 C14.3574488,34.8728396 14.7202262,34.1999424 15.0403239,33.5691013 C15.3817614,32.9382601 15.6805193,32.307419 15.9152576,31.718634 C16.0219568,31.4452695 16.2993748,31.3401293 16.5341132,31.192933 C17.0462695,30.1835872 17.8998633,29.0060171 18.4760392,27.8494751 C18.4546994,27.8705031 18.4546994,27.8915312 18.4333595,27.8915312 C18.7747971,27.3027461 19.2656135,27.0083536 19.5857112,26.4195685 C19.5216917,26.3775125 19.5643714,26.2934003 19.5643714,26.2303162 C19.75643,26.2723723 20.1192074,25.3681667 20.4819848,24.400877 C20.8447622,23.4546153 21.2075396,22.4873256 21.3569185,22.4452695 C21.3782583,22.3821854 21.3995982,22.3191013 21.4422779,22.2349891 C22.3385514,21.1415312 23.7256415,20.3004097 24.3231572,19.2490078 C24.3231572,18.9335872 24.3658369,18.6181667 24.3231572,18.3237742 C24.5578955,18.218634 24.344497,18.0293816 24.5152158,17.8401293 C25.454169,17.671905 25.4114894,17.1882601 25.0273721,17.3354564 C25.2407706,16.8307835 25.5822081,16.4102227 25.8382863,15.989662 C25.9236457,15.7793816 25.9876652,15.5691013 26.0730246,15.3377928 C26.1370441,15.1485405 26.2650832,15.1064844 26.4571418,15.1275125 C26.6492005,14.6648956 26.6918802,14.875176 27.0333177,14.4756433 C27.268056,14.4966713 27.4387748,13.192933 27.5668139,13.1088209 L27.545474,13.192933 C27.9082514,12.7092882 28.4417476,12.625176 28.7618453,12.1415312 C29.7221384,10.8588209 30.5330525,9.26069004 31.3439667,8.02003583 C31.2159276,7.91489565 31.1945878,8.33545639 31.023869,8.20928817 C31.5146855,7.47330686 32.1122012,6.8214377 32.5816778,6.04340032 C32.688377,5.9172321 32.837756,5.79106387 32.9017755,5.7490078 C33.0724943,5.51769938 32.9444552,5.55975546 33.0511544,5.39153116 L33.1578537,5.43358724 C33.2432131,5.11816667 33.4566115,5.09713864 33.5633108,4.82377415 C33.5419709,4.78171808 33.5846506,4.69760593 33.6273303,4.59246574 C33.7126897,4.65554985 33.7767092,4.29807322 33.8193889,4.36115733 L33.8193889,4.36115733 C33.8407288,4.29807322 33.8620686,4.25601714 33.9047483,4.21396107 C33.9260882,4.15087695 33.9901077,3.83545639 34.0968069,3.52003583 C34.1821663,3.20461527 34.2888655,2.91022275 34.3102054,2.84713864 L34.3528851,2.80508256 C34.4382445,2.6578863 34.4382445,2.57377415 34.3742249,2.63685826 L34.4809242,2.46863396 L34.4809242,2.489662 L34.5876234,2.3214377 C34.6089632,2.30040967 34.6516429,2.27938163 34.6516429,2.34246574 C34.6943226,2.23732555 34.7370023,2.11115733 34.8010219,2.00601714 C34.6303031,2.27938163 34.3955648,2.59480219 34.1608265,2.8261106 C34.2035062,2.69994238 34.3742249,2.51069004 34.4382445,2.38452181 C34.5662836,2.25835359 34.7583422,1.96396107 34.9290609,1.71162462 C34.9504008,1.64854051 34.9504008,1.58545639 35.0357602,1.48031621 C35.0997797,1.43826013 35.1211196,1.33311995 35.1851391,1.2490078 C35.1211196,1.37517602 35.0571,1.50134424 34.9930805,1.60648443 C35.0357602,1.60648443 35.1637993,1.33311995 35.2278188,1.22797976 C35.2491586,1.18592368 35.3771977,0.954615273 35.4412173,0.786390974 C35.4198774,0.870503123 35.5052368,0.681250787 35.5692563,0.5761106 C35.611936,0.470970413 35.6546157,0.407886301 35.6332759,0.449942375 C35.6332759,0.407886301 35.4198774,0.849475086 35.483897,0.702278824 C35.5052368,0.681250787 35.611936,0.470970413 35.6759556,0.365830226 C35.6759556,0.365830226 35.6332759,0.428914338 35.6759556,0.365830226 C35.7399751,0.260690039 35.8039947,0.155549852 35.8466743,0.0504096651 C35.8253345,0.0714377025 35.8039947,0.113493777 35.7826548,0.155549852 C35.8253345,0.0714377025 35.7186353,0.281718076 35.611936,0.49199845 C35.5052368,0.702278824 35.4412173,0.912559198 35.483897,0.807419011 C35.4625571,0.828447048 35.5692563,0.597138637 35.6759556,0.386858263 C35.7826548,0.176577889 35.889354,-0.0337024844 35.8680142,0.00835359037 C35.8253345,0.0924657399 35.9106939,-0.0547305218 35.8466743,0.0293816278 L35.7826548,0.134521815 C35.7186353,0.260690039 35.6759556,0.302746114 35.6972954,0.260690039 C35.761315,0.155549852 35.6759556,0.302746114 35.5905962,0.470970413 C35.5052368,0.639194712 35.4412173,0.807419011 35.483897,0.702278824 L35.4412173,0.786390974 C35.483897,0.702278824 35.5905962,0.49199845 35.6332759,0.407886301 C35.6332759,0.407886301 35.6759556,0.302746114 35.7399751,0.197605927 L35.761315,0.176577889 C35.8039947,0.0924657399 35.889354,-0.0337024844 35.8466743,0.00835359037 C35.6972954,0.281718076 35.7399751,0.176577889 35.7826548,0.0924657399 C35.8253345,0.00835359037 35.9106939,-0.0757585592 35.7186353,0.155549852 C35.8680142,-0.0337024844 35.6759556,0.218633964 35.5265767,0.428914338 C35.5052368,0.449942375 35.4412173,0.534054525 35.3131782,0.681250787 C35.2278188,0.807419011 35.2704985,0.765362936 35.2491586,0.786390974 C35.1851391,0.849475086 35.0784399,0.97564331 35.0784399,0.954615273 C35.0144203,1.05975546 34.9504008,1.10181153 34.8650414,1.22797976 C34.8010219,1.33311995 34.8863813,1.22797976 34.8223617,1.31209191 C34.6943226,1.45928817 34.5236039,1.69059658 34.4169046,1.79573677 C34.3528851,1.83779284 34.2035062,1.94293303 34.2461859,1.79573677 C34.4382445,1.56442836 34.224846,1.92190499 34.4169046,1.69059658 C34.2888655,1.75368069 34.5876234,1.45928817 34.5876234,1.39620406 C34.502264,1.45928817 34.3742249,1.60648443 34.2675257,1.73265266 L34.2888655,1.71162462 C34.2035062,1.83779284 34.0114475,2.06910125 33.8834085,2.1532134 C33.8834085,2.11115733 33.8193889,2.1532134 33.8834085,2.06910125 L33.7340295,2.21629752 C33.7340295,2.23732555 33.7126897,2.25835359 33.7553694,2.23732555 C33.7126897,2.3214377 33.6273303,2.38452181 33.5633108,2.42657789 C33.5419709,2.42657789 33.392592,2.6578863 33.2432131,2.86816667 C33.0938341,3.09947509 32.9871349,3.3307835 32.9871349,3.30975546 C32.9017755,3.41489565 32.8164161,3.41489565 32.7737364,3.54106387 C32.7737364,3.56209191 32.9657951,3.26769938 33.1578537,2.9943349 C33.3499123,2.72097041 33.5206311,2.46863396 33.4566115,2.55274611 C33.392592,2.59480219 33.1578537,2.93125079 32.9231154,3.26769938 C32.688377,3.60414798 32.4749786,3.96162462 32.410959,3.98265266 C32.3469395,4.06676481 32.2615801,4.17190499 32.3255997,4.19293303 C32.1975606,4.31910125 32.28292,4.08779284 32.1548809,4.17190499 C32.1548809,4.17190499 32.1762207,4.17190499 32.1548809,4.21396107 L32.0268418,4.27704518 C31.9201426,4.55040967 31.5573652,4.80274611 31.4506659,5.11816667 C31.4506659,5.01302649 31.4293261,4.86583023 31.5146855,4.67657789 L31.5573652,4.67657789 C31.5573652,4.63452181 31.6427246,4.50835359 31.6000449,4.48732555 C31.4506659,4.61349378 31.3439667,4.71863396 31.2799472,4.9078863 C31.2372675,4.92891434 31.1945878,4.94994238 31.1732479,4.94994238 C31.1732479,4.94994238 31.1945878,4.94994238 31.1945878,4.97097041 C31.1305682,4.99199845 31.1305682,4.99199845 31.1092284,4.94994238 L31.1092284,4.92891434 C30.8958299,4.9078863 30.7251112,5.53872742 30.4263533,5.7490078 C30.3836736,5.83311995 30.4476932,5.77003583 30.4050135,5.89620406 C30.1275955,6.10648443 29.914197,6.25368069 29.636779,6.4849891 C29.636779,6.63218537 29.6581188,6.6532134 29.8288376,6.61115733 L29.636779,6.80040967 C29.5940993,6.46396107 29.1032828,7.03171808 29.081943,6.67424144 C28.9752437,6.69526948 28.8685445,6.8214377 28.804525,6.94760593 C28.8472047,6.989662 28.9112242,7.07377415 28.7831851,7.22097041 C28.527107,7.36816667 28.6124663,7.34713864 28.377728,7.45227882 C28.2710288,7.43125079 28.2923686,7.34713864 28.2283491,7.3261106 C28.10031,7.64153116 27.8655717,7.43125079 27.6735131,7.68358724 C27.5668139,7.85181153 27.3107357,8.14620406 27.4387748,8.27237228 C27.1613568,8.56676481 27.0546575,8.48265266 26.9692982,8.37751247 Z" id="XMLID_35_"></path>
                            <path d="M36.730144,11.2432404 L36.5807651,11.3483806 C36.9862222,10.9698759 37.4770386,10.6123993 37.9465153,10.2759507 C37.28498,10.5072591 36.5380854,10.7806236 36.0045892,11.1801563 C35.471093,11.579689 35.1509953,12.10539 35.3643938,12.9044554 C34.7241984,12.5049227 33.5505069,13.1357638 33.6785459,13.28296 C33.6145264,13.5563245 33.529167,13.808661 33.4438076,14.0609974 C33.529167,13.8927731 33.5931865,13.7245488 33.6572061,13.5563245 C33.5931865,13.7245488 33.529167,13.8927731 33.4438076,14.0609974 C33.2944287,14.4605301 33.1023701,14.8390348 32.8676318,15.1965114 C32.6328934,15.5539881 32.3768153,15.8904367 32.0780574,16.2268853 C31.5018816,16.8787544 30.8190065,17.5095956 30.1361314,18.1404367 C29.773354,18.5189414 29.1331586,19.2128666 28.5356429,19.9698759 C27.9167873,20.7058572 27.3406115,21.4838946 26.9564942,21.8623993 C26.849795,21.9675395 26.7430958,22.0937077 26.6577364,22.2198759 C26.849795,22.0306236 26.849795,22.0306236 27.0418536,21.8623993 C26.9138146,22.5352965 26.849795,23.1661376 26.7004161,23.7338946 C26.849795,23.7128666 26.9778341,23.7549227 27.2339123,23.6287544 L27.0205138,23.8390348 C27.2125724,24.2385675 26.9138146,24.7642685 26.9138146,25.079689 C26.7857755,24.9324928 26.6577364,25.1217451 26.5296973,25.2689414 L26.6790762,25.2689414 C26.2736192,25.8787544 26.0388808,26.7198759 25.740123,27.308661 C25.6974433,27.3927731 25.6120839,27.4348292 25.5480644,27.4348292 C25.5480644,27.4348292 25.5053847,27.6030535 25.4840448,27.7502498 C25.4413651,27.9184741 25.4200253,28.0656703 25.4200253,28.0656703 C25.2493065,27.9184741 25.0359081,28.465203 25.0359081,28.1287544 C25.0785877,28.6754834 24.75849,29.0539881 24.8225096,29.579689 C24.2676736,31.0937077 23.8408766,32.7549227 23.5634586,34.4161376 L23.6274782,34.3951096 C23.5207789,34.9628666 23.5421188,35.5095956 23.2647008,36.1614647 C23.2220211,36.6661376 23.0086226,37.3390348 23.0299625,37.5493152 C22.816564,38.0750161 22.7525445,38.3063245 22.4964663,38.7899694 C22.539146,38.7268853 22.4751265,38.8530535 22.4111069,38.9581937 C22.3897671,38.9792217 22.3897671,39.0002498 22.3684272,39.0212778 C22.3684272,39.0423058 22.3470874,39.0633339 22.3470874,39.0843619 C22.3470874,39.10539 22.3470874,39.10539 22.3684272,39.0423058 C22.5818257,38.7268853 22.5818257,38.7058572 22.7738843,38.4324928 L22.7525445,38.4324928 C22.9659429,38.1170722 23.1793414,37.8016516 23.3927399,37.4862311 C23.6061383,37.1708105 23.8408766,36.876418 24.075615,36.5609974 C24.3103533,36.2666049 24.5237517,35.9511843 24.75849,35.6567918 C24.9932284,35.3623993 25.2279667,35.0469787 25.4413651,34.7525862 C25.5480644,34.5423058 25.6761035,34.3109974 25.8041425,34.1007171 C25.9321816,33.8904367 26.0815605,33.6801563 26.2309395,33.4488479 C26.5296973,33.0282871 26.8284552,32.5866984 27.0845333,32.1451096 C27.3619513,31.6824928 27.6180295,31.1778199 27.8527678,30.673147 C28.0875061,30.1895021 28.3009046,29.7058572 28.4716234,29.2642685 C28.5356429,29.0539881 28.7917211,28.990904 29.0051195,28.8857638 C29.1971781,28.5072591 29.4532563,28.0866984 29.7093345,27.6661376 C29.9867525,27.2455769 30.2428306,26.8039881 30.4348892,26.3623993 C30.4348892,26.3834273 30.4135494,26.3834273 30.3922096,26.4044554 C30.6269479,25.9418386 31.0750846,25.7736143 31.309823,25.3320255 C31.2458034,25.2899694 31.2884831,25.2268853 31.2671433,25.1848292 C31.437862,25.2268853 31.6939402,24.53296 31.9286785,23.7969787 C32.1634168,23.0609974 32.3981551,22.3039881 32.5475341,22.28296 C32.5688739,22.2198759 32.5688739,22.1778199 32.6115536,22.1147357 C33.3371084,21.3156703 34.5321398,20.8109974 34.9802766,20.011932 C34.9589367,19.7595956 34.9589367,19.4862311 34.8949172,19.2338946 C35.1083157,19.1918386 34.8949172,19.0025862 35.0442961,18.85539 C35.89789,18.85539 35.8125306,18.4558572 35.471093,18.5189414 C35.620472,18.1194086 35.9192298,17.8250161 36.0899486,17.5306236 C36.1539681,17.3623993 36.1966478,17.194175 36.2606674,17.0259507 C36.3033471,16.8787544 36.4313861,16.8787544 36.5807651,16.8997825 C36.730144,16.5423058 36.7941635,16.7315582 37.0502417,16.4581937 C37.1569409,16.4792217 37.2209605,16.2268853 37.28498,15.9745488 C37.3489996,15.7011843 37.3916792,15.4278199 37.4556988,15.4067918 L37.4343589,15.4698759 C37.7331168,15.1334273 38.2025934,15.1334273 38.4586716,14.7969787 C39.2482459,13.8927731 39.8884413,12.694175 40.5713164,11.7899694 C40.4646172,11.6638012 40.4646172,12.0212778 40.2938984,11.8951096 C40.6993555,11.3694086 41.2115118,10.9278199 41.595629,10.3810909 C41.6809884,10.2969787 41.8090275,10.2128666 41.873047,10.1918386 C42.022426,10.0446423 41.8943869,10.0446423 42.0010861,9.91847406 L42.0864455,9.98155818 C42.150465,9.72922173 42.3425237,9.7712778 42.427883,9.53996939 C42.4065432,9.49791332 42.4492229,9.4348292 42.4919026,9.37174509 C42.5559221,9.4348292 42.5986018,9.16146472 42.6626214,9.22454883 L42.6626214,9.22454883 C42.6839612,9.18249276 42.7053011,9.14043668 42.7479807,9.11940864 C42.7479807,9.07735257 42.8333401,8.80398808 42.8973597,8.57267967 C42.9613792,8.32034322 43.0680784,8.08903481 43.0680784,8.04697874 L43.0894183,8.0259507 C43.1534378,7.92081051 43.1534378,7.83669836 43.1107581,7.89978248 L43.1961175,7.77361425 L43.1961175,7.79464229 L43.2814769,7.66847406 C43.3028168,7.64744603 43.3454965,7.64744603 43.3241566,7.6895021 C43.3668363,7.60538995 43.409516,7.50024977 43.4521957,7.43716565 C43.3028168,7.62641799 43.0894183,7.83669836 42.8973597,8.00492266 C42.9400394,7.89978248 43.0894183,7.77361425 43.132098,7.6895021 C43.2387972,7.60538995 43.409516,7.39510958 43.5588949,7.22688528 C43.5802348,7.1848292 43.5802348,7.12174509 43.6442543,7.05866098 C43.686934,7.03763294 43.7082738,6.95352079 43.7722934,6.89043668 C43.7296137,6.99557687 43.6655942,7.07968902 43.6015746,7.16380117 C43.6442543,7.1848292 43.7509535,6.95352079 43.8149731,6.89043668 C43.8363129,6.84838061 43.9430122,6.68015631 44.0070317,6.57501612 C43.9856918,6.63810023 44.0710512,6.49090397 44.1137309,6.42781986 C44.1564106,6.34370771 44.1777505,6.30165163 44.1564106,6.32267967 C44.1564106,6.2806236 43.964352,6.6170722 44.0283715,6.49090397 C44.0497114,6.46987593 44.1350708,6.32267967 44.1990903,6.23856752 C44.1990903,6.23856752 44.1564106,6.2806236 44.1990903,6.23856752 C44.2631099,6.15445537 44.3057895,6.09137126 44.3484692,6.00725911 C44.3271294,6.02828715 44.3057895,6.04931519 44.3057895,6.09137126 C44.3484692,6.02828715 44.24177,6.19651145 44.1564106,6.34370771 C44.0710512,6.49090397 44.0070317,6.65912827 44.0283715,6.59604416 C44.0070317,6.6170722 44.0923911,6.42781986 44.1990903,6.2806236 C44.2844497,6.1123993 44.3911489,5.96520304 44.3698091,6.00725911 C44.3271294,6.07034322 44.4124888,5.96520304 44.3484692,6.02828715 L44.2844497,6.1123993 C44.2204302,6.19651145 44.1777505,6.23856752 44.1990903,6.19651145 C44.2631099,6.1123993 44.1777505,6.23856752 44.1137309,6.36473575 C44.0497114,6.49090397 43.964352,6.6170722 44.0070317,6.55398808 L43.964352,6.6170722 C44.0070317,6.55398808 44.0923911,6.38576378 44.1350708,6.34370771 C44.1350708,6.34370771 44.1777505,6.25959556 44.2204302,6.19651145 L44.24177,6.17548341 C44.2844497,6.1123993 44.3484692,6.00725911 44.3271294,6.04931519 C44.1990903,6.23856752 44.2204302,6.17548341 44.2844497,6.1123993 C44.3271294,6.04931519 44.3911489,6.00725911 44.2204302,6.15445537 C44.3484692,6.02828715 44.1777505,6.19651145 44.0497114,6.34370771 C44.0283715,6.34370771 43.964352,6.40679182 43.8576528,6.51193201 C43.7722934,6.59604416 43.8149731,6.57501612 43.7936332,6.59604416 C43.7509535,6.63810023 43.6442543,6.72221238 43.6442543,6.70118434 C43.6015746,6.78529649 43.5162152,6.80632453 43.4521957,6.89043668 C43.3881761,6.97454883 43.4735355,6.89043668 43.4308558,6.95352079 C43.3241566,7.05866098 43.1747777,7.20585724 43.0894183,7.28996939 C43.0467386,7.31099743 42.8973597,7.3530535 42.9400394,7.24791332 C43.1107581,7.10071705 42.9186995,7.3530535 43.0894183,7.1848292 C42.9613792,7.20585724 43.2387972,7.03763294 43.2387972,6.97454883 C43.1747777,7.01660491 43.0467386,7.10071705 42.9613792,7.20585724 L42.9827191,7.1848292 C42.8973597,7.26894135 42.7479807,7.43716565 42.6199417,7.47922173 C42.6199417,7.43716565 42.5559221,7.45819369 42.6199417,7.39510958 L42.4919026,7.50024977 C42.4919026,7.5212778 42.4705627,7.54230584 42.5132424,7.5212778 C42.4705627,7.58436191 42.4065432,7.62641799 42.3425237,7.64744603 C42.3211838,7.64744603 42.1931447,7.79464229 42.0651057,7.96286659 C41.9370666,8.13109089 41.8303673,8.29931519 41.8303673,8.27828715 C41.745008,8.3623993 41.6809884,8.32034322 41.6383087,8.44651145 C41.6383087,8.46753948 41.8090275,8.25725911 41.9797463,8.04697874 C42.150465,7.8577264 42.299844,7.66847406 42.2358244,7.73155818 C42.1931447,7.75258621 41.9797463,7.98389462 41.7663478,8.23623107 C41.5742892,8.48856752 41.3822306,8.74090397 41.318211,8.74090397 C41.2541915,8.80398808 41.1901719,8.88810023 41.2541915,8.90912827 C41.1261524,8.99324042 41.2115118,8.80398808 41.1048126,8.84604416 C41.1048126,8.84604416 41.1261524,8.8670722 41.1048126,8.88810023 L40.9767735,8.90912827 C40.8700742,9.11940864 40.5713164,9.26660491 40.485957,9.49791332 C40.485957,9.41380117 40.4646172,9.26660491 40.5286367,9.14043668 L40.5713164,9.14043668 C40.5713164,9.11940864 40.6566758,9.01426846 40.6139961,8.97221238 C40.485957,9.03529649 40.4005976,9.11940864 40.3365781,9.26660491 C40.2938984,9.26660491 40.2725585,9.28763294 40.2298788,9.28763294 C40.2298788,9.28763294 40.2512187,9.28763294 40.2512187,9.30866098 C40.1871992,9.30866098 40.1871992,9.30866098 40.1871992,9.28763294 C40.1871992,9.28763294 40.1871992,9.28763294 40.1871992,9.26660491 C39.9951405,9.20352079 39.8671015,9.70819369 39.5896834,9.83436191 C39.5470038,9.89744603 39.6110233,9.85538995 39.5683436,9.96053014 C39.3122654,10.0866984 39.1415467,10.1708105 38.9068084,10.3180068 C38.9068084,10.444175 38.9281482,10.465203 39.0775271,10.465203 L38.9068084,10.5913713 C38.8641287,10.2969787 38.4373317,10.6965114 38.394652,10.3810909 C38.3092926,10.3810909 38.2025934,10.465203 38.1385739,10.5703432 C38.1812536,10.6123993 38.2452731,10.6965114 38.1385739,10.8016516 C37.9251754,10.8857638 37.9891949,10.8647357 37.7971363,10.9278199 C37.6904371,10.8857638 37.7117769,10.8226797 37.6690973,10.7806236 C37.562398,11.03296 37.3489996,10.8016516 37.1782808,10.9698759 C37.0929214,11.0960442 36.8581831,11.3063245 36.9862222,11.4324928 C36.9222026,11.4324928 36.8155034,11.3483806 36.730144,11.2432404 Z" id="XMLID_32_"></path>
                        </g>
                        <g id="Word" transform="translate(0.000000, 15.000000)">
                            <g id="XMLID_69_">
                                <use fill="#CFCFCF" fill-rule="evenodd" xlink:href="#path-2"></use>
                                <use stroke="#3A3870" mask="url(#mask-3)" stroke-width="4" xlink:href="#path-2"></use>
                            </g>
                            <g id="XMLID_66_">
                                <use fill="#CFCFCF" fill-rule="evenodd" xlink:href="#path-4"></use>
                                <use stroke="#3A3870" mask="url(#mask-5)" stroke-width="4" xlink:href="#path-4"></use>
                            </g>
                            <g id="XMLID_60_">
                                <use fill="#CFCFCF" fill-rule="evenodd" xlink:href="#path-6"></use>
                                <use stroke="#3A3870" mask="url(#mask-7)" stroke-width="4" xlink:href="#path-6"></use>
                            </g>
                            <g id="XMLID_70_">
                                <use fill="#CFCFCF" fill-rule="evenodd" xlink:href="#path-8"></use>
                                <use stroke="#3A3870" mask="url(#mask-9)" stroke-width="4" xlink:href="#path-8"></use>
                            </g>
                            <g id="XMLID_63_">
                                <use fill="#CFCFCF" fill-rule="evenodd" xlink:href="#path-10"></use>
                                <use stroke="#3A3870" mask="url(#mask-11)" stroke-width="4" xlink:href="#path-10"></use>
                            </g>
                            <g id="XMLID_52_">
                                <use fill="#CFCFCF" fill-rule="evenodd" xlink:href="#path-12"></use>
                                <use stroke="#3A3870" mask="url(#mask-13)" stroke-width="4" xlink:href="#path-12"></use>
                            </g>
                            <g id="XMLID_49_">
                                <use fill="#CFCFCF" fill-rule="evenodd" xlink:href="#path-14"></use>
                                <use stroke="#3A3870" mask="url(#mask-15)" stroke-width="4" xlink:href="#path-14"></use>
                            </g>
                            <g id="XMLID_56_">
                                <use fill="#CFCFCF" fill-rule="evenodd" xlink:href="#path-16"></use>
                                <use stroke="#3A3870" mask="url(#mask-17)" stroke-width="4" xlink:href="#path-16"></use>
                            </g>
                        </g>
                    </g>
                </g>
            </g>
        </g>
    </g>
</svg>
